<svg xmlns="http://www.w3.org/2000/svg" xmlns:xlink="http://www.w3.org/1999/xlink" viewBox="0 0 28 28"><defs><style>.cls-1{fill:url(#linear-gradient);}.cls-2{stroke:#fff;stroke-miterlimit:10;fill:url(#linear-gradient-2);}</style><linearGradient id="linear-gradient" x1="-173.41" y1="256.82" x2="-172.41" y2="255.82" gradientTransform="matrix(28, 0, 0, -28, 4855.43, 7191)" gradientUnits="userSpaceOnUse"><stop offset="0" stop-color="#12b3a7"/><stop offset="1" stop-color="#0a98b0"/></linearGradient><linearGradient id="linear-gradient-2" x1="7.48" y1="14" x2="20.52" y2="14" gradientTransform="matrix(1, 0, 0, 1, 0, 0)" xlink:href="#linear-gradient"/></defs><g id="Layer_2" data-name="Layer 2"><g id="Layer_1-2" data-name="Layer 1"><rect class="cls-1" width="28" height="28" rx="8"/><path class="cls-2" d="M20.52,19.13a1.75,1.75,0,0,1,0,.32,2.56,2.56,0,0,1-.08.38l0,.14a1.77,1.77,0,0,0-.06.17c-.13.48-.3.95-.45,1.42a2.18,2.18,0,0,1-.49.81c-.45.43-.95.76-1.41,1.16a4.44,4.44,0,0,1-1.57.85c-1,.32-2,.65-3,1.06a3.19,3.19,0,0,1-2.62-.09A1.06,1.06,0,0,1,10.3,25a6.76,6.76,0,0,1-1-1.53,7.59,7.59,0,0,1-.44-1.4,12.24,12.24,0,0,1-.51-2c-.14-1.17-.17-2.37-.31-3.56a16,16,0,0,0-.5-3,2.17,2.17,0,0,1-.07-.77c0-.1,0-.21.14-.24.4-.06.51-.36.58-.71l.26-1.29a7,7,0,0,0,.31-1.74A2.49,2.49,0,0,1,9.37,7a1.74,1.74,0,0,0,.46-1.35,1.77,1.77,0,0,1,0-.46.84.84,0,0,1,.67-.88l.3-.08A.33.33,0,0,0,11,3.68a1.19,1.19,0,0,0-.48-.41A2.79,2.79,0,0,0,9.22,3a1.51,1.51,0,0,1-.47-.05c-.06,0-.14,0-.15-.11s.06-.12.13-.16a3,3,0,0,1,.91-.29,1.43,1.43,0,0,1,1.3.43,17.49,17.49,0,0,0,1.78,1.55,5.18,5.18,0,0,1,1.47,1.75A15.78,15.78,0,0,0,15.6,8.3a3.16,3.16,0,0,1,.54.87A3.06,3.06,0,0,0,17,10.46a2.14,2.14,0,0,1,.65,1.12,9.66,9.66,0,0,0,1.5,3.24,6.51,6.51,0,0,1,1.24,3.34c0,.19,0,.64.08.87C20.5,19.08,20.5,19.11,20.52,19.13Z"/></g></g></svg>