<svg xmlns="http://www.w3.org/2000/svg" xmlns:xlink="http://www.w3.org/1999/xlink" viewBox="0 0 1000 1000"><defs><style>.cls-1{fill:url(#linear-gradient);}.cls-2{stroke:#fff;stroke-miterlimit:10;stroke-width:19.24px;fill:url(#linear-gradient-2);}.cls-3{fill:#fbfcfc;}</style><linearGradient id="linear-gradient" x1="1.41" y1="500" x2="999.44" y2="500" gradientUnits="userSpaceOnUse"><stop offset="0" stop-color="#12b3a7"/><stop offset="1" stop-color="#0a98b0"/></linearGradient><linearGradient id="linear-gradient-2" x1="272.24" y1="610.47" x2="728.15" y2="610.47" gradientTransform="matrix(1, 0, 0, -1, 0, 1110.47)" xlink:href="#linear-gradient"/></defs><g id="Layer_2" data-name="Layer 2"><g id="Layer_2-2" data-name="Layer 2"><rect class="cls-1" width="1000" height="1000"/><path class="cls-2" d="M728.15,678.56a61.51,61.51,0,0,1,0,11.19,88.7,88.7,0,0,1-2.8,13.29v4.89a62.67,62.67,0,0,0-2.1,6c-4.54,16.78-10.48,33.21-15.73,49.64a76.2,76.2,0,0,1-17.13,28.32c-15.73,15-33.21,26.57-49.3,40.56a155.23,155.23,0,0,1-54.89,29.72c-35,11.18-69.92,22.72-104.88,37.06A111.56,111.56,0,0,1,389.71,896a37,37,0,0,1-18.88-12.24,236.34,236.34,0,0,1-35-53.49,265.39,265.39,0,0,1-15.38-48.95,427.47,427.47,0,0,1-17.83-69.92c-4.9-40.91-6-82.86-10.84-124.47a559.27,559.27,0,0,0-17.48-104.88,76,76,0,0,1-2.45-26.93c0-3.49,0-7.34,4.9-8.39,14-2.09,17.83-12.58,20.27-24.82l9.09-45.1A244.77,244.77,0,0,0,317,316a87.07,87.07,0,0,1,21.33-61.53,60.82,60.82,0,0,0,16.08-47.2,61.83,61.83,0,0,1,0-16.08,29.37,29.37,0,0,1,23.43-30.77l10.49-2.8a11.53,11.53,0,0,0,7-19.22,41.55,41.55,0,0,0-16.78-14.34,97.52,97.52,0,0,0-45.46-9.44,53,53,0,0,1-16.43-1.75c-2.1,0-4.89,0-5.24-3.84s2.1-4.2,4.54-5.6a105.16,105.16,0,0,1,31.82-10.14,50,50,0,0,1,45.45,15,611.82,611.82,0,0,0,62.23,54.19,181,181,0,0,1,51.4,61.18,552.23,552.23,0,0,0,49.29,76.22A110.24,110.24,0,0,1,575,330.34a107,107,0,0,0,30.07,45.1,74.8,74.8,0,0,1,22.73,39.16,337.75,337.75,0,0,0,52.44,113.28A227.53,227.53,0,0,1,723.6,644.65c0,6.64,0,22.38,2.8,30.42C727.45,676.82,727.45,677.86,728.15,678.56Z"/><path class="cls-3" d="M548.61,612.94a32,32,0,0,1,9.3-3.65c9.61-2.41,19.06-2.16,28.24,2a47,47,0,0,1,8,5c2.88,2,2.32,2.09,4.83,0a45.86,45.86,0,0,1,22.65-10.34,55.87,55.87,0,0,1,18.3,0,12.3,12.3,0,0,1-4.6,1.16,56.91,56.91,0,0,0-27.18,11.7,47.12,47.12,0,0,0-8.37,9c-2.68,3.49-3.3,3.58-6.07.18-7.35-9-17-13.53-28.36-14.71a75.59,75.59,0,0,0-13.12-.29C551,613,549.82,612.94,548.61,612.94Z"/><path class="cls-3" d="M688.2,741.88c-4.26-.41-8.51-.91-12.76-1.43-10.42-1.27-20.84-2.62-31.2-4.26-8.89-1.41-17.78-2.83-26.61-4.66-8.4-1.75-16.8-3.54-25.29-4.67-4.31-.58-6.78-2.76-8.75-6.13-.89-1.5-1.72-3.05-2.57-4.58s-1.52-3-2.39-4.37c-2.67-4.28-6.26-7-11.59-6.87-2.18.05-4.36-.36-6.55-.4a18.52,18.52,0,0,1-9.86-3.2c-2.27-1.47-4.52-3-6.74-4.56a6.48,6.48,0,0,0-2.34-1.11c-8.76-2.07-17.55-4-26.28-6.29-12.08-3.16-23.52-8-34.72-13.42a173.57,173.57,0,0,1-20.27-11.56,90.22,90.22,0,0,0,15.16,12.51A115.5,115.5,0,0,0,502,689.94a139.47,139.47,0,0,0,22.2,6.29c2.83.5,5.64,1.21,8.51,1.58.48.07,1.09.14,1.17.82.05.51-.37.76-.71,1s-.76.44-1.12.69c-2.56,1.83-5.39,3.27-7.83,5.29-5.93,4.92-11.85,9.84-17.62,14.94a5.14,5.14,0,0,1-3.45,1.63c-3.76.07-7.53.25-11.29.42-5.07.23-10.15.36-15.21.8-8.79.78-17.6,1.42-26.4,2.19s-17.78,1.56-26.66,2.42c-12.1,1.18-24.2,2.44-36.24,4.14-5.71.8-11.48,1.15-17.14,2.37-3.42.73-6.92,1.09-10.38,1.6-2.58.38-2.83.14-2.19-2.33a72.39,72.39,0,0,1,6.91-16.7A47.79,47.79,0,0,1,377,702.28c1.4-1.07,1.93-.92,2.14.84a36.65,36.65,0,0,1,.26,5.24c0,2.56.24,5.15-.48,7.71,3.6-1.8,3.34-5.64,4.95-9.14,1.63,4.83,4.11,8.72,5.05,13.19,1-.16,1-.77,1.14-1.23a16.54,16.54,0,0,0-2.81-15.63c-.47-.63-1.29-1.13-1-2.36,5.33,2.52,10.66,4.63,15.32,8.79a12.36,12.36,0,0,0-2.45-7.8c-2.18-3.13-5.4-4.61-8.92-5.63-.67-.19-1.53-.09-2.1-1,1.54-.86,3.13-1.13,4.48-1.82s2.86-.63,4.29-.92,3,.65,4.56-.11c-3.4-4.33-8-5-12.59-3.53a30.83,30.83,0,0,0-3.13,1.36c-.85.37-1.37.12-1.39-.85,0-1.22,0-2.45,0-3.68,0-4.5-1.83-7.94-5.91-10-.52-.27-1-.73-1.79,0a18.73,18.73,0,0,1,1.86,6.66c.09,1.56.31,3.13.45,4.69.05.42.23.94-.26,1.17-.66.3-.9-.29-1.18-.71a15,15,0,0,0-6.92-5.84c-3.06-1.26-6.16-1.77-9.39.15,2,2,5,2.26,6.51,4.47s4.45,2.68,5.83,5.61a19.61,19.61,0,0,0-9.89-.3c-3.33.89-5.69,2.94-8,6,2.65-.46,4.68-.8,6.73-1.17,1-.18,2.14-1.06,2.8.63.13.31.82.1,1.23,0a2.91,2.91,0,0,1,2.07-.07,12.6,12.6,0,0,0,6,1.47c.68,0,.88.61.5,1.12a12.94,12.94,0,0,1-1.83,1.87c-1.77,1.55-3.73,2.9-5.4,4.59A83.57,83.57,0,0,0,350,732.15c-.47,1.13-1,2.25-1.47,3.36a1.3,1.3,0,0,1-1.2.88c-.64,0-.78-.56-.95-1.09a50.62,50.62,0,0,1-1.22-5.62,135.32,135.32,0,0,1-2.58-24,154.94,154.94,0,0,1,2.92-32.35,182.11,182.11,0,0,1,8.2-29.29,35.06,35.06,0,0,1,4.39-8.68,1,1,0,0,1,1,.63c2,4.68,3.9,9.39,4.2,14.55.06.87-.11,1.84.44,2.55.76,1,.71,2.09.88,3.22a93.79,93.79,0,0,1,.76,9.92c0,.73-.16,1.87.72,2.06,1,.22,1.27-1,1.67-1.69,2.47-4.39,2.84-9.12,2.32-14a9,9,0,0,0-1.42-4.16,6.21,6.21,0,0,1-.64-5.74,10.25,10.25,0,0,1,1.87,4.3c.19.72.36,1.66,1.54,1.15,1-.44,1.22.22,1.33,1a11.33,11.33,0,0,0,.21,1.55,3.32,3.32,0,0,0,1.08,1.77c.75.57,1.07-.93,1.95-.24a14.31,14.31,0,0,0,1.64,6.16c.39.76.67,1.52,1.65.53a.67.67,0,0,1,1.19.38c0,2.57,1.76,4.38,2.63,6.57.7,1.73,1.46,3.44,2.35,5.52a14.82,14.82,0,0,0,2-6.84,36.15,36.15,0,0,0-1.2-15.32c-2.7-8.47-8.75-14-16.36-18.83a6.48,6.48,0,0,1,4,0c2.47.59,4.93,1.21,7.39,1.8,1,.23,1.91.3,1.3-1.21a.67.67,0,0,1,.23-.82c1.53.34,2.52,1.65,3.79,2.5.62.43,1.16,1.26,2,.83s1.63,0,2.41.43c1.52.78,2.85,1.93,4.43,2.34a.79.79,0,0,0,.38-.83c-.05-.5-.44-1.12.17-1.41s1.1.32,1.44.81a18.87,18.87,0,0,0,3,3.33c.31.27.87.79,1.07.37,1.14-2.23,1.76-.15,2.38.32,1.77,1.34,3.44,2.84,5.27,4,.5-.48.55-.82.46-1.17-2.42-9.86-8.22-16.84-17.71-20.62a32.67,32.67,0,0,0-17-1.7,12.27,12.27,0,0,1-4.22,0,40.59,40.59,0,0,1,10.52-6.74c.07-1-1.3-1-1-1.78s1.3-.73,2.07-.71a11.94,11.94,0,0,0,4.54-1.19c.84-.32,2.32-.25,1.57-2-.17-.37.3-.6.65-.6,3.25,0,6-1.89,9.13-2.32a7,7,0,0,0,3.33-.75,23.87,23.87,0,0,0-6.09-2.9C388.14,598.05,381,598,374.15,602a31.66,31.66,0,0,0-10.63,9.23c-.32.47-.58,1.13-1.56.8a61.6,61.6,0,0,0-2.29-9.57c-3.53-10.22-11.67-17.85-23.05-18.65a18.45,18.45,0,0,0-5.62.29c2.15,1.74,4,3,5.6,4.56,1,.9,3.18,1.24,2,3.49-.17.32.59.8,1.05,1.06,1,.53,2,1,3,1.56.52.29,1.18.5,1.06,1.26-.42.79-1.69-.15-1.91,1.1,1.59,2.52,4.59,3.53,6.62,5.65-.72.82-1.7-.1-2.3.74,0,.91.72,1.53,1.2,2.22a52.49,52.49,0,0,1,3.38,5.61,3.11,3.11,0,0,1,.56,2.42c-1-.09-1.41-.94-2.05-1.48a35.58,35.58,0,0,0-11.54-7.15c-10.14-3.61-19.28-1.78-27.47,5.08-.5.41-1.26.72-1.1,1.78a66.48,66.48,0,0,1,7.18.64c2.43.48,4.7-.83,7.11-.67.11,1.26-1.56,1.37-1,2.47,2.89.76,5.75,1.55,8.79.81.52-.13,1.52-.13,1.19.78-.53,1.39.42,1.47,1.23,1.69,3.2.91,6.21,2.39,9.33,3.52.59.22,1.4.37,1.29,1.52a37,37,0,0,0-15.89,2.68,30.42,30.42,0,0,0-12.66,9.53,31.16,31.16,0,0,0-6.25,15.18,54.23,54.23,0,0,0,6.68-5.18c.42-.4,1-1.19,1.52-.59,1.32,1.47,1.93.13,2.71-.54s1.28-1.68,2.41-2.24c.3,1.58,1.1,1.45,1.94.5s1.38-1.81,2.08-2.7c.57-.72.82-1.76,1.92-2,1,1.14-.88,2.12,0,3.34a18.24,18.24,0,0,0,5-2.58c1.5-1.22,2.51-3,4.22-4,.68.89-.24,1.71.43,2.6,4.53-1,8.72-3.57,13.57-4.18a7,7,0,0,1-1,3.19c-1.73,3.64-3.77,7.12-5.4,10.8a177.12,177.12,0,0,0-9.86,29.87,180.29,180.29,0,0,0-4.72,36.11A159.52,159.52,0,0,0,332,734.32c.09.84.44,2-.32,2.49a16.73,16.73,0,0,0-.6,3.88c1.8,15,2.71,15.93,9,29.93a7.49,7.49,0,0,0,2.05,3.27c7.18,7.08,15.81,11.87,25,15.71,17.09,7.14,35,11.11,53.27,13.7,12.74,1.8,25.59,2.6,38.44,3.23,9.28.45,18.55.64,27.83.94,4.47.14,8.94.14,13.39.38,6.9.36,13.8.89,20.7,1.32,8.12.5,16.22,1.26,24.31,2.19a255.24,255.24,0,0,1,33.8,6.19c2.78.71,5.56,1.46,8.68,2.3a8.1,8.1,0,0,0-2.88-1.84c-4.51-1.92-9-3.91-13.55-5.72a230.71,230.71,0,0,0-29.5-9.35c-10.54-2.64-21.16-4.86-31.86-6.73-14.31-2.52-28.7-4.62-43-7.42a292.39,292.39,0,0,1-40.14-10.38c-5.38-1.87-10.71-3.87-15.54-7A17,17,0,0,1,406.8,768a4.59,4.59,0,0,1-.33-6,11.68,11.68,0,0,1,4.32-3.73,51.55,51.55,0,0,1,11.11-4c9.56-2.69,19.4-3.72,29.23-4.71,1-.1,2,.06,2.93-.7-25-2.91-50.07-5.34-75.21-6.83a25.8,25.8,0,0,1,6.87-.74c27.69-.08,55.37-.25,83-.28,26,0,52-.09,78,.47,11.73.26,23.46.25,35.2.49,14.17.29,28.36,0,42.54.61,14.7.58,29.41.75,44.1,1.07,6,.13,12.1.16,18.14.24a9.13,9.13,0,0,0,1.57-.06,1.14,1.14,0,0,0,1.07-1.27C689.35,741.83,688.7,741.92,688.2,741.88ZM351.39,613.81l.14,0C351.53,614,351.48,614,351.39,613.81ZM582.76,736.22c-4.81-.18-9.62-.36-14.4-.66-13.89-.89-27.79-.64-41.68-1.08-8-.25-15.91-.05-23.86-.29-.84,0-1.75.24-2.5-.32-.3-.73.28-1,.68-1.23a128.91,128.91,0,0,0,12-9.72,13.76,13.76,0,0,1,9.12-3.42c1.66,0,3.33-.09,5,0a5,5,0,0,0,4-1.54c1.71-1.63,3.42-3.28,5.24-4.76A27.3,27.3,0,0,1,546.3,708a8.17,8.17,0,0,1,7,1.2c1.38.92,2.79,1.81,4.12,2.79a3.79,3.79,0,0,0,3.4.76c6.7-1.6,11,2.06,14,6.7a6.8,6.8,0,0,1,1.29,4.47c-.18,1.51.58,2.25,1.71,2.9,3.68,2.09,6.75,5,10,7.65a2.49,2.49,0,0,1,1,1.73C586.7,736.24,584.73,736.3,582.76,736.22Z"/><path class="cls-3" d="M678.35,767.06c-1.16,3.06-1.4,3.26-4.22,3.16-10.14-.36-20.29-.64-30.43-1.12-8.82-.42-17.64-.94-26.44-1.65-7.85-.63-15.71-1-23.57-1.49-13.44-.84-26.88-1.69-40.34-2.25-13.91-.57-27.81-1.14-41.72-1.5-15-.39-29.94-.47-44.91-.33a5.09,5.09,0,0,1-2.78-.49c1.7-.32,3-.63,4.28-.78,7-.82,14.07-1.63,21.14-2.12,5.85-.41,11.67-1.09,17.52-1.43,7.25-.41,14.52-.6,21.78-.87q16.27-.59,32.56-.17c11.27.29,22.54.76,33.79,1.7,5.93.49,11.87.88,17.79,1.35,6.37.5,12.71,1.23,19.07,1.81s12.88,1.32,19.29,2.22l26.5,3.67A2.74,2.74,0,0,1,678.35,767.06Z"/><path class="cls-3" d="M638.39,798.19c-1.55,1.19-2.71,2.07-3.86,3a2.6,2.6,0,0,1-2.23.27,379.59,379.59,0,0,1-44.11-9.33c-7.87-2.06-15.76-4.08-23.7-5.83-6.23-1.37-12.48-2.71-18.83-3.5a18.38,18.38,0,0,1-3.68-1C574.81,782,606.51,788.81,638.39,798.19Z"/><path class="cls-3" d="M479.27,400.11c-3.6-1.59-7.24-3.11-10.84-4.7a32.1,32.1,0,0,1-7.58-4.15c-3.52-2.88-3.75-5.16-2.35-8.25.27-.56.48-1.13.73-1.69A99.41,99.41,0,0,1,466,369.15c1-1.58.89-1.83-.8-2.47-2.29-.86-4.62-1.62-6.92-2.46-8.25-3-16.64-5.55-25.48-5.84-4.21-.15-8.41-1.18-12.71.06-7.7,2.23-15.28,4.56-21.34,10.18a1.87,1.87,0,0,1-1.85.67c.31-2.29,1.73-4.1,2.09-6.35-1.47-.09-2.2.77-3,1.36-4.5,3.49-9,7-13.41,10.56a86.52,86.52,0,0,0-7.84,7.36A13,13,0,0,0,371,392.77c.13,1.55.39,1.73,1.72,1,1.58-.89,3.15-1.81,4.71-2.71.13.15.25.32.39.47-1.23,3.74-4,6.32-7,8.52-8.68,6.24-17.26,12.59-25.64,19.21q-9,7.1-17.21,15c-4.23,4-5.08,8.55-2.8,13.82a53.26,53.26,0,0,0,3,6.12,5,5,0,0,1,.81,3c-.55,6.54,1,12.69,3.49,18.66a34.58,34.58,0,0,0,6.88,10.79c.31.31.59.72,1.08.56s.54-.66.53-1.08a34,34,0,0,1,.56-5.23,8.25,8.25,0,0,0-.25-3.12c-.79-3.32-1.55-6.64-2.34-10a12,12,0,0,0-2.55-5.68c-3.71-4-5.79-8.92-7.88-13.82a13.06,13.06,0,0,1-1.33-5.32c0-2.06.36-2.44,2.3-1.88a11.78,11.78,0,0,0,7.71,0c2-.74,4.06-1.06,6.08-1.63a10,10,0,0,1,6.68.42,18,18,0,0,1,2.87,1.27,6.47,6.47,0,0,0,7-.07c1.32-.71,2.59-1.48,3.86-2.24,1-.6,1.47-.23,1.7.75a4.1,4.1,0,0,1-.25,2.82,16.84,16.84,0,0,1-2.28,3.5,21.11,21.11,0,0,1-13,7.37,3.51,3.51,0,0,0-2.86,1.59c-1.48,3-3.22,6-3.07,9.36.31,7.07,2.78,13.06,8.88,17.28a70.38,70.38,0,0,0,21.78,10.12c9.53,2.57,19,3,28.37-.51a12.73,12.73,0,0,1,11.14.95c.52.31,1.06.6,1.59.9s.8.5,1.2.16a1.25,1.25,0,0,0,.21-1.24c-.11-.52-.29-1-.44-1.51a22.23,22.23,0,0,0-4.71-7.81c-.63-.72-1.64-1.46-1.39-2.42.55-2.06-.44-3.46-2.13-5,2.25-.42,3.92.09,5.61.25.72.07,1.44.2,1.85-.58s-.1-1.1-.38-1.66a9,9,0,0,0-4.94-4.09c-.69-.29-1.76-.34-1.73-1.61,1.54-.24,3,.62,4.48,0a3.7,3.7,0,0,0-.63-2.5,33.87,33.87,0,0,0-3.15-5.14c-.55-.82-1.82-1.61-1.21-2.65s1.93-.45,2.94-.46c3.59-.05,7.18.05,10.78,0a50,50,0,0,0,13.92-2.33c11.14-3.49,19.66-10.41,26.32-19.89a54.54,54.54,0,0,0,8.1-18.67c1.41-5.78,3.57-11,9.26-13.95C480.69,401.25,480.57,400.68,479.27,400.11ZM433.73,398a7.41,7.41,0,0,1-1.13,1.11A61.19,61.19,0,0,1,416.31,409a16.62,16.62,0,0,1-4.32,1,4.21,4.21,0,0,1-2.81-.48.78.78,0,0,1,.07-1.46,6.74,6.74,0,0,1,1.52-.35c3.46-.93,6.21-2.74,7.75-6.12.42-.94.46-1.67-.6-2.17s-1.9-.59-2.35.66a7.42,7.42,0,0,1-2.27,3.16c-2,1.7-3.71,1.5-5.46-.46-.77-.86-1-2-1.93-3.25a4.4,4.4,0,0,0-.7,4.85c.45,1.14,1,2.24,1.39,3.4.44,1.42,0,1.88-1.5,1.91a1.49,1.49,0,0,1-.52,0c-2.6-1-4.72.29-6.88,1.45-4.1,2.2-7.9,4.85-11.8,7.36a5.91,5.91,0,0,1-2.16,1.12c-.44-1,.31-1.69.68-2.38a108.4,108.4,0,0,1,6.17-9.76c.74-1.09,1.41-2.21,2.11-3.32a6.54,6.54,0,0,0,.92-5.68,9.32,9.32,0,0,1,1.59-8.24,19.48,19.48,0,0,1,4-4.34,1.26,1.26,0,0,1,.23,1.44,12.51,12.51,0,0,0-.53,5.19c.1,2.3.37,2.47,2.5,1.64a23.37,23.37,0,0,1,11.53-1.9,73,73,0,0,1,7.7,1.57,101.69,101.69,0,0,0,12.59,2.54C434.29,396.5,434.46,397.08,433.73,398Z"/><path class="cls-3" d="M512.13,678c-2.79-.5-5.22-1.91-7.69-3.17-12-6.12-22.78-13.85-30.76-24.84a59.1,59.1,0,0,1-10.86-25.32,61.39,61.39,0,0,1,0-22.45,77,77,0,0,1,4.55-14.78,110.64,110.64,0,0,1,13-22.46c4.89-6.61,9.91-13.13,14.62-19.87,6.35-9.06,11.81-18.63,15.08-29.29,5.88-19.15,4.17-37.67-4.74-55.55a174.51,174.51,0,0,1-7.44-15.93,43.82,43.82,0,0,1-2.72-20.87c.07-.59,0-1.26.74-1.58.8.07,1.12.75,1.51,1.3,3.94,5.55,9.23,9.54,15,12.9,6.45,3.72,13.14,7,19.55,10.77a79,79,0,0,1,23.45,20.76,71.94,71.94,0,0,1,12.69,28.59c2.85,13.55,1.46,26.78-2.8,39.83a88.29,88.29,0,0,1-9,18.93,70,70,0,0,1-7.21,9.34c-.38.44-.7,1-1.42,1.07-.71-.34-.34-.88-.21-1.32a126.73,126.73,0,0,0,3.94-17.39,77.85,77.85,0,0,0-.09-26.11,79.14,79.14,0,0,0-6.87-21.43,14,14,0,0,0-.77-1.36c-.08-.14-.27-.2-.42-.3-.79.16-.5.8-.5,1.25,0,1.66.07,3.33.07,5A96,96,0,0,1,533.46,545c-5.06,10.71-11.94,20.14-19.82,28.9-5.86,6.51-12.3,12.46-18.15,19-5.23,5.84-9.71,12.16-12.53,19.56-4.12,10.78-3.48,21.39.83,32a66.79,66.79,0,0,0,20.83,27.19,74.79,74.79,0,0,0,6.88,5.25c.37.23.77.45.74,1Z"/><path class="cls-3" d="M417.07,297.38c-1.06,2.58-2.48,5-3.09,7.79-.15.66-.48,1.31,0,2,.69,0,1-.43,1.29-.85a54.82,54.82,0,0,1,20.48-17.63,84.35,84.35,0,0,1,33.12-9.32,93,93,0,0,1,31,2.59,16.48,16.48,0,0,1,5.4,2c-15.13,3.42-28.6,8.82-38.52,21.48a14,14,0,0,0,4.7-.56,81.93,81.93,0,0,1,24.48-2.08c15.22.94,29.43,5,42.44,13.12a47.61,47.61,0,0,1,5.81,4.49,1.4,1.4,0,0,1,.51,1.45c-10.08.93-19.64,3.74-28.12,9.52l.07.64c2.1.23,4.2.51,6.31.68a74.42,74.42,0,0,1,17.46,3.45c5.35,1.77,10.18,4.6,15.17,7.15a17,17,0,0,1,8.49,9.51,40.78,40.78,0,0,1,1.85,5.26c-9.23-3.19-17.92-7.11-27.47-7.79-.32.92.21,1.34.57,1.78a30.17,30.17,0,0,1,6.83,21.27c-.55,11.14-4.82,20.71-13.59,27.93-5.48,4.51-11.9,6.12-18.89,5.71a2.81,2.81,0,0,1-.74-.25c-.17-.89.58-1,1-1.25,9.38-4.82,14.59-12.9,17.27-22.71a21.08,21.08,0,0,0-2.22-16.47,14,14,0,0,0-8.13-6.25,24.69,24.69,0,0,0-15.23-.21,65.47,65.47,0,0,0-11.71,4.6,46.57,46.57,0,0,1-9.09,3.36c-2.69.71-5.28,1.77-7.86,2.65-.51-.35-.29-.7-.12-1,5.13-8,11.39-15,19.9-19.4a45.7,45.7,0,0,1,29-5c1.72.28,3.39.86,5.09,1.28a8.61,8.61,0,0,0,1.8.32c.88,0,2-.08,2.2-1s-.94-1.08-1.62-1.35c-8-3.07-16.21-4.42-24.7-3s-16.85,3.09-25.27,4.66a37.09,37.09,0,0,0-5,1.44,31.75,31.75,0,0,1-10.8,1.87c-2.28,0-4.55.12-6.83.17-.41,0-.91.13-1.12-.41-.14-.38.12-.65.31-.94a65,65,0,0,1,25.08-21.8c2.49-1.24,5-2.35,7.54-3.52-.32-.81-.91-.67-1.4-.68A63.24,63.24,0,0,0,462,328.71a60.55,60.55,0,0,0-21.21,16.42,3.13,3.13,0,0,1-2.21,1.2c-3.12.42-6.23.94-9.34,1.38-2,.28-2.18.12-1.94-1.86,1.24-10.34,4.35-20,10.56-28.47.41-.56.78-1.16,1.15-1.75a1.46,1.46,0,0,0,.06-.53c-.54-.7-1.09-.22-1.58,0-13.57,7.37-23.63,17.67-27.46,33.09a4,4,0,0,1-2.64,3.17,34.79,34.79,0,0,0-6.82,3.91c-1.75,1.22-2.19,1-2.64-1a55.12,55.12,0,0,1,5.72-40.09,72.44,72.44,0,0,1,11.12-15.22c.66-.67,1.19-1.55,2.28-1.65Z"/><path class="cls-3" d="M398.56,586c-.37-.58-.6-.77-.62-1a56.72,56.72,0,0,1,0-12.56c.19-1.38.47-2.75.68-4.13a55.5,55.5,0,0,1,8.21-21.16,70.16,70.16,0,0,1,13-15c6.53-5.87,14-10.52,20.77-16,7.93-6.47,15.12-13.58,19.52-23a29.94,29.94,0,0,0,2.66-7.1,2.06,2.06,0,0,1,.81-1.57c2.08,2.39,2.78,10.14,2.08,16.9-.59,5.78-2.55,11.13-4.33,16.62,8.56-7.09,14.51-16,18.7-26.11s4.9-20.79,4.27-31.7c1.14.24,1.46,1,1.9,1.61a50.58,50.58,0,0,1,8.58,20.39c3.15,16.52-.63,31.57-9.76,45.48a122.12,122.12,0,0,1-15.4,18.56,169.69,169.69,0,0,0-19.41,22.74,73.88,73.88,0,0,0-12.15,29.66,59.45,59.45,0,0,0-1.31,12.23c.4,11.1,2.31,21.91,7.05,32.07,1.08,2.3,2.18,4.59,3.24,6.89.24.53.71,1,.46,1.69-2.67-.5-10.43-7.8-15.92-15a81,81,0,0,1-10.94-19.67A71.85,71.85,0,0,1,416.17,595a77.54,77.54,0,0,1,2.18-22.38c1.64-7.31,5-13.89,8.15-20.68-4.94,1.64-8.36,5.25-12,8.51a52.32,52.32,0,0,0-9.55,11.8A58.94,58.94,0,0,0,398.56,586Z"/><path class="cls-3" d="M587.77,537c-.55-1.13-.11-2.32,0-3.47a119.7,119.7,0,0,0,.92-16.49,92.09,92.09,0,0,0-11.8-42.3,115.82,115.82,0,0,0-21.32-27.49c-5.3-5.08-10.84-9.92-16.06-15.1-4.3-4.26-8.38-8.7-11.2-14.14a5.77,5.77,0,0,1-.36-.7c-.21-.52-.9-1-.3-1.62.44-.44,1-.06,1.48,0a176.18,176.18,0,0,1,19.34,4.8c12.61,4.06,24,10.3,33.37,19.69a70.75,70.75,0,0,1,17.92,30.45,69.49,69.49,0,0,1,2.84,25.15c-1.12,14.43-5.06,28-13.37,40.11C588.92,536.38,588.73,537.06,587.77,537Z"/><path class="cls-3" d="M396.58,510.55a.87.87,0,0,1-.69.91,13.35,13.35,0,0,0-5.64,4.16c-3.28,3.82-7.39,5-12.26,4.14-1.91-.36-2-.28-2.8,1.42-1.26,2.75-2.08,5.55-1.27,8.63.4,1.55-.05,2-1.59,1.44a28.77,28.77,0,0,1-10.11-5.93,44.83,44.83,0,0,1-7-8c-1.6,1.83-1,4.09-1.72,6.09a6.24,6.24,0,0,1-2.77-2.48c-4-5.48-6.57-11.55-6.64-18.44,0-4.26.64-8.36,3.78-11.66a2.32,2.32,0,0,1,3.17-.62c4.9,2.32,9.65,5,14.69,7a144.19,144.19,0,0,0,15.45,5,26.11,26.11,0,0,1,5.83,2.33c2.75,1.52,5.42,3.2,8.11,4.84A3.69,3.69,0,0,1,396.58,510.55Z"/><path class="cls-3" d="M555.12,389.58a62.36,62.36,0,0,1,13.3,3.38c2,.78,4.24,1.14,6.2,2.07s2.53,3.42,4,5c5.51,5.75,8.68,12.82,11,20.31.11.37.44.78-.24,1.42-4.22-6.82-9.71-12.51-15.5-17.89A137.1,137.1,0,0,0,555.12,389.58Z"/></g></g></svg>