<svg id="Layer_1" data-name="Layer 1" xmlns="http://www.w3.org/2000/svg" xmlns:xlink="http://www.w3.org/1999/xlink" viewBox="0 0 1000 333.33"><defs><style>.cls-1{fill:#231f20;}.cls-2{fill:#0ab6c6;}.cls-3{opacity:0.6;}.cls-4{fill:url(#linear-gradient);}.cls-5{stroke:#fff;stroke-miterlimit:10;stroke-width:4.15px;fill:url(#linear-gradient-2);}.cls-6{fill:#fbfcfc;}</style><linearGradient id="linear-gradient" x1="39.99" y1="166.67" x2="255.14" y2="166.67" gradientUnits="userSpaceOnUse"><stop offset="0" stop-color="#12b3a7"/><stop offset="1" stop-color="#0a98b0"/></linearGradient><linearGradient id="linear-gradient-2" x1="98.37" y1="-190.1" x2="196.66" y2="-190.1" gradientTransform="matrix(1, 0, 0, -1, 0, -23.43)" xlink:href="#linear-gradient"/></defs><path class="cls-1" d="M307.56,98v18.79h30.3v17.47h-30.3v20.37h34.27v18.13h-56.9V79.59h56.9V98Z"/><path class="cls-1" d="M356.32,115.71A32.14,32.14,0,0,1,368,102.48a30.85,30.85,0,0,1,16.54-4.63A28.57,28.57,0,0,1,398.26,101a23.53,23.53,0,0,1,9.07,8.33V98.91H430v73.83H407.33V162.29a25,25,0,0,1-9.2,8.33,28.71,28.71,0,0,1-13.69,3.18A29.53,29.53,0,0,1,368,169.1a31.68,31.68,0,0,1-11.71-13.23A43.82,43.82,0,0,1,352,136,43.76,43.76,0,0,1,356.32,115.71Zm46.31,6.62a15.88,15.88,0,0,0-22.45-.44c-.15.14-.3.29-.44.44a18.15,18.15,0,0,0-4.7,13.23,18.44,18.44,0,0,0,4.7,13.23,15.74,15.74,0,0,0,22.26.63c.21-.2.43-.41.63-.63a18.44,18.44,0,0,0,4.7-13.23,18.75,18.75,0,0,0-4.7-13.1Z"/><path class="cls-1" d="M459.19,170.49a29.12,29.12,0,0,1-11.9-9.06,23.7,23.7,0,0,1-4.9-12.9h22.36a8.57,8.57,0,0,0,3.57,6.22,12.64,12.64,0,0,0,7.81,2.38,11.17,11.17,0,0,0,6.62-1.66,5,5,0,0,0,1.43-7,4.93,4.93,0,0,0-2.69-2,75.77,75.77,0,0,0-10.72-3.38,91.19,91.19,0,0,1-13.23-3.9,21.75,21.75,0,0,1-9.13-6.68,17.5,17.5,0,0,1-3.84-12,19.93,19.93,0,0,1,3.84-11.38,23.89,23.89,0,0,1,10.32-8.27,40,40,0,0,1,16.14-3,32.61,32.61,0,0,1,21.9,6.62,27.12,27.12,0,0,1,9.2,18.25H485a9.57,9.57,0,0,0-3.51-5.82,12.18,12.18,0,0,0-7.48-2.25,10.49,10.49,0,0,0-6.08,1.53,4.8,4.8,0,0,0-2.12,4.16,5.11,5.11,0,0,0,3.37,4.77,54.49,54.49,0,0,0,10.52,3.17q6.72,1.75,13.24,4.17a23.68,23.68,0,0,1,9.06,6.62,19.06,19.06,0,0,1,4,12.24,19.8,19.8,0,0,1-3.63,11.57,23.9,23.9,0,0,1-10.46,8,40.73,40.73,0,0,1-15.81,2.91A41.62,41.62,0,0,1,459.19,170.49Z"/><path class="cls-1" d="M561.34,153.55v19.19H549.83a28,28,0,0,1-19.18-6A24.6,24.6,0,0,1,524,146.87V117.7h-9.46V98.91h9v-18h22.62v18H561V117.7H546.39v29.64A6.09,6.09,0,0,0,548,152.1a7.54,7.54,0,0,0,5.29,1.45Z"/><path class="cls-1" d="M588,169.17a33.19,33.19,0,0,1-13.62-13.23,39.82,39.82,0,0,1-5-19.85,39.28,39.28,0,0,1,5-19.85A34.16,34.16,0,0,1,588.2,103a43.76,43.76,0,0,1,39.17,0,34.55,34.55,0,0,1,13.76,13.23,39.72,39.72,0,0,1,5,19.85,39,39,0,0,1-5.1,19.85,34.42,34.42,0,0,1-13.89,13.23,41.5,41.5,0,0,1-19.85,4.63A40.39,40.39,0,0,1,588,169.17Zm30.57-19.85a18.84,18.84,0,0,0,4.56-13.63,19.8,19.8,0,0,0-4.43-13.63,15,15,0,0,0-21.23-.67c-.23.22-.45.44-.67.67a19.87,19.87,0,0,0-4.36,13.7,19.36,19.36,0,0,0,4.3,13.63,13.85,13.85,0,0,0,10.78,4.76,14.77,14.77,0,0,0,11.05-4.7Z"/><path class="cls-1" d="M690.75,101.62A25.7,25.7,0,0,1,704,98.11v24h-6.22a19.18,19.18,0,0,0-12.7,3.84,16.17,16.17,0,0,0-4.24,12.77v34.27H658.2v-74h22.62v12.3A30.64,30.64,0,0,1,690.75,101.62Z"/><path class="cls-1" d="M790.25,98.91,743.94,207.8H719.66l16.94-37.57L706.43,98.91H731.7l17.07,46.31,16.94-46.31Z"/><path class="cls-2" d="M842.09,170.36a28.8,28.8,0,0,1-13.23-9.79,26.5,26.5,0,0,1-5.1-15.62h24.08a11.47,11.47,0,0,0,3.58,7.88,11.13,11.13,0,0,0,7.94,2.71,12.24,12.24,0,0,0,7.93-2.32,8.33,8.33,0,0,0,.92-11.75c-.1-.12-.21-.24-.32-.35a20.6,20.6,0,0,0-5.69-3.71c-2.25-.92-5.49-2-9.59-3.31a102.44,102.44,0,0,1-14.56-5.55,26.54,26.54,0,0,1-9.79-8.21,22.46,22.46,0,0,1-3.9-14.29,24.34,24.34,0,0,1,9.39-19.84,38.48,38.48,0,0,1,24.48-7.35A39.11,39.11,0,0,1,883,86.21,26.42,26.42,0,0,1,893,106.05H868.55A9.88,9.88,0,0,0,865.24,99a11.72,11.72,0,0,0-7.8-2.58,9.66,9.66,0,0,0-6.62,2.19,8.73,8.73,0,0,0,1.72,13.63,63.25,63.25,0,0,0,13.23,5.42,131.63,131.63,0,0,1,14.62,5.82,29,29,0,0,1,9.73,8.07,21.88,21.88,0,0,1,4.1,13.63,27.08,27.08,0,0,1-4,14.42,28,28,0,0,1-11.71,10.33,39.71,39.71,0,0,1-18.13,3.83A46.79,46.79,0,0,1,842.09,170.36Z"/><path class="cls-2" d="M930.67,155.27h29.64v17.47H908.05V79.59h22.62Z"/><g class="cls-3"><path class="cls-1" d="M298.68,254.5a18.92,18.92,0,0,1-7.18-1.31,11.16,11.16,0,0,1-4.71-3.86,10.89,10.89,0,0,1-1.86-5.94h5.49a5.69,5.69,0,0,0,1.23,3.47,6.43,6.43,0,0,0,2.93,2.08,11.06,11.06,0,0,0,4,.7,11.86,11.86,0,0,0,4.17-.7,6.62,6.62,0,0,0,2.85-2.08,4.83,4.83,0,0,0,1.08-3.09,3.87,3.87,0,0,0-.85-2.55,6.72,6.72,0,0,0-2.47-1.77,24.15,24.15,0,0,0-3.62-1.24l-4.25-1.08a15.35,15.35,0,0,1-7.18-3.63,7.72,7.72,0,0,1-2.55-6.09,9.28,9.28,0,0,1,1.7-5.56,10.74,10.74,0,0,1,4.56-3.63,17.66,17.66,0,0,1,13.35,0,10.13,10.13,0,0,1,4.48,3.71,9.82,9.82,0,0,1,1.7,5.32h-5.41a5.48,5.48,0,0,0-2.31-4.09,8.52,8.52,0,0,0-5.25-1.47,9.4,9.4,0,0,0-3.78.7,5.55,5.55,0,0,0-2.55,1.93,4.65,4.65,0,0,0-.93,2.78,3.92,3.92,0,0,0,.93,2.7,7.7,7.7,0,0,0,2.55,1.7,21.8,21.8,0,0,0,3.16,1.08l3.63.92a24.08,24.08,0,0,1,3.86,1.32,13.32,13.32,0,0,1,3.4,1.93,8.82,8.82,0,0,1,2.39,2.93,8.29,8.29,0,0,1,.92,4.09,9.74,9.74,0,0,1-1.62,5.56,10.77,10.77,0,0,1-4.71,3.94A17.42,17.42,0,0,1,298.68,254.5Z"/><path class="cls-1" d="M349.39,253.88V217.37h13.28a15.9,15.9,0,0,1,7,1.47,10.52,10.52,0,0,1,4.25,4,12.55,12.55,0,0,1,1.39,6,11.05,11.05,0,0,1-1.47,5.94,9.33,9.33,0,0,1-4.32,3.94,15.56,15.56,0,0,1-7,1.39h-10v-4.71h9.58a9.8,9.8,0,0,0,4.24-.77,5,5,0,0,0,2.47-2.24,7.58,7.58,0,0,0,.85-3.55,7,7,0,0,0-.85-3.48,5.47,5.47,0,0,0-2.47-2.31,10,10,0,0,0-4.32-.85H355v31.72Zm20.84,0-8.8-16h6.18l8.95,16.44Z"/><path class="cls-1" d="M418.25,217.37v36.51h-5.56V217.37Z"/><path class="cls-1" d="M500.77,253.88V217.37h5.79V249.1h16.6v4.78Z"/><path class="cls-1" d="M557,253.88l13-36.51h6.8L590,253.88h-6.26l-7.1-20.38-1.85-5.79c-.62-2.16-1.39-4.86-2.32-7.71h1.24l-2.24,7.71c-.69,2.24-1.23,4.17-1.77,5.72l-7,20.38Zm7.1-9.57v-4.63h18.84v4.63Z"/><path class="cls-1" d="M625.83,253.88V217.37h6.33L646,239.22c0,.61.93,1.46,1.47,2.47s1.16,2,1.78,3.24,1.23,2.47,1.85,3.86h-.7V217.37H656v36.51H649.6l-12.35-19.45-1.78-3.09c-.69-1.08-1.38-2.24-2.16-3.7l-3.24-5.25h.85v31.49Z"/><path class="cls-1" d="M694.14,253.88V217.37h5.41v36.51Zm3.94-9.65v-5.86c.85-1.16,1.62-2.32,2.47-3.32S702.17,233,703,232s1.78-2.16,2.7-3.16L716,217.37h7.1l-15.44,17.14h-.38Zm18.53,9.65L704.18,236l3.47-4.24,15.44,22.15Z"/><path class="cls-1" d="M756.28,253.88,769,217.37h6.79L789,253.88h-5.94L776,233.5c-.62-1.62-1.16-3.55-1.85-5.79s-1.47-4.86-2.32-7.71H773c-.85,3.08-1.63,5.78-2.32,7.71s-1.24,4.17-1.78,5.72L762,253.81Zm7.18-9.57v-4.63h18.76v4.63Z"/></g><rect class="cls-4" x="39.69" y="58.88" width="215.57" height="215.57" rx="34.14"/><path class="cls-5" d="M196.66,205.16a13.86,13.86,0,0,1,0,2.41,18.79,18.79,0,0,1-.61,2.87v1.05c-.17.42-.32.85-.45,1.28-1,3.62-2.26,7.16-3.39,10.7a16.43,16.43,0,0,1-3.69,6.11c-3.4,3.24-7.16,5.73-10.63,8.74a33.4,33.4,0,0,1-11.83,6.41c-7.54,2.41-15.08,4.9-22.62,8A24.06,24.06,0,0,1,123.7,252a8,8,0,0,1-4.07-2.64,50.92,50.92,0,0,1-7.54-11.53,57.4,57.4,0,0,1-3.31-10.55,92.13,92.13,0,0,1-3.85-15.08c-1.05-8.81-1.28-17.86-2.34-26.83a120.23,120.23,0,0,0-3.76-22.61,16.21,16.21,0,0,1-.53-5.8c0-.75,0-1.58,1-1.81,3-.45,3.85-2.71,4.38-5.35l2-9.72A53.23,53.23,0,0,0,108,127a18.77,18.77,0,0,1,4.6-13.26,13.12,13.12,0,0,0,3.47-10.18,13.36,13.36,0,0,1,0-3.46,6.33,6.33,0,0,1,5-6.64l2.26-.6a2.48,2.48,0,0,0,1.5-4.15,9,9,0,0,0-3.61-3.09,21.14,21.14,0,0,0-9.8-2,11.42,11.42,0,0,1-3.54-.38c-.46,0-1.06,0-1.13-.83s.45-.9,1-1.2A22.67,22.67,0,0,1,114.65,79a10.8,10.8,0,0,1,9.8,3.24,133.13,133.13,0,0,0,13.42,11.69A39.05,39.05,0,0,1,149,107.1a119.46,119.46,0,0,0,10.62,16.44,23.65,23.65,0,0,1,4.07,6.55,23,23,0,0,0,6.49,9.72,16.17,16.17,0,0,1,4.89,8.45,73,73,0,0,0,11.31,24.42,49,49,0,0,1,9.35,25.17c0,1.43,0,4.82.6,6.56C196.5,204.78,196.5,205,196.66,205.16Z"/><path class="cls-6" d="M158,191a6.77,6.77,0,0,1,2-.78,9,9,0,0,1,6.08.42,10,10,0,0,1,1.73,1.08c.62.44.5.45,1,0a9.84,9.84,0,0,1,4.88-2.23,11.89,11.89,0,0,1,3.95,0,2.7,2.7,0,0,1-1,.25,12.22,12.22,0,0,0-5.86,2.52,10.34,10.34,0,0,0-1.8,1.94c-.58.76-.71.77-1.31,0a8.72,8.72,0,0,0-6.11-3.17,15.73,15.73,0,0,0-2.83-.06C158.47,191,158.21,191,158,191Z"/><path class="cls-6" d="M188,218.81c-.92-.09-1.83-.2-2.75-.31-2.24-.27-4.49-.56-6.72-.92-1.92-.3-3.84-.61-5.74-1s-3.62-.77-5.45-1a2.4,2.4,0,0,1-1.89-1.32c-.19-.32-.37-.66-.55-1s-.33-.64-.52-.94a2.74,2.74,0,0,0-2.5-1.48c-.47,0-.93-.08-1.41-.09a3.91,3.91,0,0,1-2.12-.69c-.49-.31-1-.64-1.46-1a1.29,1.29,0,0,0-.5-.24c-1.89-.45-3.78-.86-5.67-1.36a41.16,41.16,0,0,1-7.48-2.89,37,37,0,0,1-4.37-2.49,19.64,19.64,0,0,0,3.27,2.7,25.19,25.19,0,0,0,5.73,2.81,30.32,30.32,0,0,0,4.78,1.36c.61.11,1.22.26,1.84.34.1,0,.23,0,.25.17s-.08.17-.16.22a1.94,1.94,0,0,1-.24.15c-.55.4-1.16.71-1.68,1.14-1.28,1.06-2.56,2.12-3.8,3.22a1.16,1.16,0,0,1-.75.36c-.81,0-1.62.05-2.43.09-1.09,0-2.19.07-3.28.17-1.89.17-3.79.3-5.69.47s-3.83.33-5.75.52c-2.61.26-5.21.53-7.81.89-1.23.18-2.47.25-3.7.51-.73.16-1.48.24-2.23.35-.56.08-.61,0-.47-.5a15.12,15.12,0,0,1,1.49-3.6,10.16,10.16,0,0,1,2.67-3.2c.3-.23.41-.2.46.18a8.62,8.62,0,0,1,0,1.13,6.26,6.26,0,0,1-.1,1.67c.78-.39.72-1.22,1.07-2a30.36,30.36,0,0,1,1.09,2.85c.21,0,.21-.17.24-.27a3.56,3.56,0,0,0-.6-3.37c-.1-.13-.28-.24-.21-.5a12.53,12.53,0,0,1,3.3,1.89,2.62,2.62,0,0,0-.53-1.68A3.27,3.27,0,0,0,123.8,209c-.14,0-.33,0-.45-.21.33-.18.67-.24,1-.39a3.44,3.44,0,0,1,.93-.2c.32-.07.65.14,1,0a2.33,2.33,0,0,0-2.71-.76,5.79,5.79,0,0,0-.68.29c-.18.08-.29,0-.3-.18s0-.53,0-.79a2.26,2.26,0,0,0-1.28-2.17c-.11-.06-.22-.16-.38,0a4.12,4.12,0,0,1,.4,1.43c0,.34.06.68.09,1,0,.09,0,.2-.05.25s-.2-.06-.26-.15a3.21,3.21,0,0,0-1.49-1.26,2.1,2.1,0,0,0-2,0c.43.42,1.07.48,1.4,1s1,.58,1.26,1.21a4.3,4.3,0,0,0-2.13-.07,3.21,3.21,0,0,0-1.73,1.3l1.45-.25c.22,0,.46-.23.6.14,0,.06.18,0,.27,0a.61.61,0,0,1,.44,0,2.68,2.68,0,0,0,1.3.31.15.15,0,0,1,.11.25,2.94,2.94,0,0,1-.39.4c-.38.33-.81.62-1.17,1a17.88,17.88,0,0,0-3.82,5.63c-.11.24-.21.49-.32.73a.29.29,0,0,1-.26.19c-.14,0-.17-.13-.2-.24-.13-.39-.18-.81-.27-1.21a30,30,0,0,1-.55-5.17,32.64,32.64,0,0,1,.63-7,39.19,39.19,0,0,1,1.76-6.32,8.22,8.22,0,0,1,.95-1.87.21.21,0,0,1,.21.14,9.48,9.48,0,0,1,.91,3.13,1,1,0,0,0,.09.55,1.23,1.23,0,0,1,.19.7,18.9,18.9,0,0,1,.17,2.14c0,.15,0,.4.15.44s.28-.21.36-.36a4.87,4.87,0,0,0,.5-3,1.93,1.93,0,0,0-.3-.9,1.34,1.34,0,0,1-.14-1.24,2.21,2.21,0,0,1,.4.93c0,.15.08.36.33.24s.27.05.29.22a3.26,3.26,0,0,0,0,.33.68.68,0,0,0,.23.39c.16.12.23-.21.42-.06a3,3,0,0,0,.35,1.33c.09.17.15.33.36.12a.14.14,0,0,1,.25.08c0,.55.38.94.57,1.41s.32.74.51,1.19a3.19,3.19,0,0,0,.43-1.47,7.83,7.83,0,0,0-.25-3.3,7.57,7.57,0,0,0-3.53-4.06,1.42,1.42,0,0,1,.87,0c.53.13,1.06.27,1.6.39.21.05.41.07.27-.26a.14.14,0,0,1,0-.17c.33.07.55.35.82.54s.25.27.44.17.35,0,.52.1a5.87,5.87,0,0,0,1,.5.18.18,0,0,0,.08-.18c0-.11-.1-.24,0-.3s.24.07.32.17a3.67,3.67,0,0,0,.64.72c.06.06.18.17.23.08.24-.48.37,0,.51.07.38.29.74.61,1.13.86.11-.1.12-.18.1-.25a6.08,6.08,0,0,0-3.81-4.45,7.2,7.2,0,0,0-3.68-.37,2.48,2.48,0,0,1-.91,0,9,9,0,0,1,2.27-1.45c0-.2-.28-.21-.22-.38s.28-.16.45-.16a2.58,2.58,0,0,0,1-.25c.18-.07.5-.06.34-.43,0-.08.06-.13.14-.13a12,12,0,0,0,2-.5,1.37,1.37,0,0,0,.72-.16,4.86,4.86,0,0,0-1.31-.62,5.36,5.36,0,0,0-4.59.32,6.74,6.74,0,0,0-2.29,2c-.07.1-.12.24-.34.17a11.63,11.63,0,0,0-.49-2.06,5.63,5.63,0,0,0-5-4,4,4,0,0,0-1.21.06c.47.37.86.66,1.21,1s.68.27.44.76c0,.06.12.17.22.22l.66.34c.11.06.25.11.22.27s-.36,0-.41.24c.34.54,1,.76,1.43,1.22-.16.17-.37,0-.5.16s.16.32.26.47a12.54,12.54,0,0,1,.73,1.21.67.67,0,0,1,.12.53c-.21,0-.3-.21-.44-.32a7.48,7.48,0,0,0-2.49-1.54,5.69,5.69,0,0,0-5.92,1.09c-.11.09-.27.16-.24.38.51,0,1,0,1.55.14s1-.18,1.53-.14c0,.27-.33.29-.21.53a3.92,3.92,0,0,0,1.89.18c.11,0,.33,0,.26.16s.09.32.26.37c.69.19,1.34.51,2,.76.13,0,.31.07.28.32a8.15,8.15,0,0,0-3.42.58,6.46,6.46,0,0,0-2.73,2.06A6.63,6.63,0,0,0,106.4,199a11.48,11.48,0,0,0,1.44-1.12c.09-.08.21-.25.33-.13.28.32.41,0,.58-.11s.28-.36.52-.48c.07.34.24.31.42.1s.3-.39.45-.58.18-.38.41-.42c.21.24-.19.45,0,.72a4,4,0,0,0,1.08-.56c.33-.26.54-.64.91-.85.15.19-.05.37.09.56,1-.22,1.88-.77,2.93-.91a1.41,1.41,0,0,1-.23.69c-.37.79-.81,1.54-1.16,2.33a38.56,38.56,0,0,0-2.13,6.44,39.3,39.3,0,0,0-1,7.78,33.41,33.41,0,0,0,.23,4.69c0,.18.09.44-.07.53a3.75,3.75,0,0,0-.13.84c.39,3.24.58,3.44,1.94,6.45a1.55,1.55,0,0,0,.44.71,16.64,16.64,0,0,0,5.38,3.38,46.63,46.63,0,0,0,11.48,3c2.75.39,5.52.56,8.29.7,2,.09,4,.13,6,.2,1,0,1.93,0,2.89.08,1.49.08,3,.19,4.46.28,1.75.11,3.5.28,5.24.48a54.64,54.64,0,0,1,7.29,1.33l1.87.5a1.7,1.7,0,0,0-.62-.4c-1-.41-1.94-.84-2.92-1.23a48.94,48.94,0,0,0-6.36-2q-3.42-.85-6.87-1.45c-3.09-.54-6.19-1-9.26-1.6a61.87,61.87,0,0,1-8.66-2.24,15.47,15.47,0,0,1-3.35-1.5,3.65,3.65,0,0,1-.92-.74,1,1,0,0,1-.07-1.3,2.47,2.47,0,0,1,.93-.8,10.43,10.43,0,0,1,2.4-.86,36.29,36.29,0,0,1,6.3-1,1,1,0,0,0,.63-.15c-5.39-.63-10.79-1.15-16.21-1.47a5.29,5.29,0,0,1,1.48-.16c6,0,11.93-.06,17.9-.06,5.61,0,11.21,0,16.82.1,2.53.05,5.06.05,7.59.1,3,.07,6.11,0,9.17.13s6.34.17,9.51.24l3.91.05h.33c.15,0,.25-.12.23-.28S188.15,218.82,188,218.81Zm-72.6-27.61h0S115.46,191.24,115.44,191.2Zm49.87,26.39c-1,0-2.07-.08-3.1-.14-3-.2-6-.14-9-.24-1.71-.05-3.43,0-5.14-.06-.18,0-.38,0-.54-.07s.06-.2.15-.26a27.31,27.31,0,0,0,2.59-2.1,3,3,0,0,1,2-.74c.36,0,.72,0,1.08,0a1.09,1.09,0,0,0,.86-.33c.37-.36.74-.71,1.13-1a5.93,5.93,0,0,1,2.14-1.12,1.79,1.79,0,0,1,1.51.26c.3.2.6.39.89.6a.8.8,0,0,0,.73.17,2.69,2.69,0,0,1,3,1.44,1.47,1.47,0,0,1,.28,1,.57.57,0,0,0,.37.62,16.35,16.35,0,0,1,2.15,1.65.5.5,0,0,1,.22.37C166.16,217.59,165.74,217.61,165.31,217.59Z"/><path class="cls-6" d="M185.92,224.24c-.25.66-.3.7-.91.68-2.19-.08-4.37-.14-6.56-.24-1.9-.09-3.8-.2-5.7-.36-1.69-.14-3.39-.21-5.08-.32-2.9-.18-5.8-.36-8.7-.48s-6-.25-9-.33c-3.23-.08-6.45-.1-9.68-.07a1,1,0,0,1-.6-.11c.37-.06.64-.13.92-.16,1.52-.18,3-.35,4.56-.46,1.26-.09,2.52-.24,3.78-.31,1.56-.09,3.13-.13,4.69-.19q3.51-.12,7,0c2.43.06,4.86.16,7.28.36,1.28.11,2.56.19,3.84.29s2.74.27,4.11.39,2.78.29,4.16.48l5.71.79A1,1,0,0,1,185.92,224.24Z"/><path class="cls-6" d="M177.31,231l-.84.64c-.15.12-.3.08-.48.06a83.72,83.72,0,0,1-9.51-2c-1.69-.45-3.39-.88-5.1-1.26-1.35-.3-2.7-.59-4.06-.76a3.78,3.78,0,0,1-.8-.21A75,75,0,0,1,177.31,231Z"/><path class="cls-6" d="M143,145.13l-2.33-1a6.89,6.89,0,0,1-1.64-.9c-.76-.62-.81-1.11-.5-1.77l.15-.37a22.32,22.32,0,0,1,1.45-2.62c.21-.34.19-.4-.17-.53s-1-.35-1.49-.53a17.41,17.41,0,0,0-5.49-1.26,8.13,8.13,0,0,0-2.74,0,10.78,10.78,0,0,0-4.6,2.19.42.42,0,0,1-.4.15c.06-.49.37-.88.45-1.37a.88.88,0,0,0-.64.29c-1,.76-1.94,1.51-2.9,2.28a18.08,18.08,0,0,0-1.69,1.59,2.8,2.8,0,0,0-.8,2.27c0,.34.09.37.37.21l1-.58.08.1a3.74,3.74,0,0,1-1.51,1.84c-1.87,1.34-3.72,2.71-5.53,4.14-1.29,1-2.52,2.1-3.71,3.24a2.43,2.43,0,0,0-.6,3,13.36,13.36,0,0,0,.64,1.32,1,1,0,0,1,.18.64,8.44,8.44,0,0,0,.75,4,7.53,7.53,0,0,0,1.48,2.32c.07.07.13.16.24.13s.11-.15.11-.24a8.34,8.34,0,0,1,.12-1.12,1.74,1.74,0,0,0,0-.68l-.51-2.14a2.46,2.46,0,0,0-.55-1.23,10,10,0,0,1-1.7-3,2.82,2.82,0,0,1-.28-1.15c0-.44.08-.52.49-.4a2.58,2.58,0,0,0,1.67,0c.42-.16.87-.23,1.31-.35a2.16,2.16,0,0,1,1.44.09,3.42,3.42,0,0,1,.62.27,1.42,1.42,0,0,0,1.5,0l.83-.49c.2-.13.31,0,.36.16a.92.92,0,0,1-.05.61,3.79,3.79,0,0,1-.49.76,4.63,4.63,0,0,1-2.8,1.59.72.72,0,0,0-.61.34,4.22,4.22,0,0,0-.67,2,4.46,4.46,0,0,0,1.92,3.72,15.1,15.1,0,0,0,4.69,2.18,9.78,9.78,0,0,0,6.12-.11,2.72,2.72,0,0,1,2.4.21l.34.19c.09,0,.18.11.26,0a.24.24,0,0,0,.05-.26c0-.11-.07-.22-.1-.33a4.81,4.81,0,0,0-1-1.68c-.14-.16-.36-.32-.3-.52a1,1,0,0,0-.46-1.08,3.94,3.94,0,0,1,1.21.05c.15,0,.31,0,.4-.12s0-.24-.09-.36a1.92,1.92,0,0,0-1.06-.88c-.15-.07-.38-.08-.37-.35.33-.05.64.13,1,0,.06-.21-.06-.37-.13-.54A8.46,8.46,0,0,0,128,158c-.12-.17-.4-.34-.26-.57s.41-.1.63-.1c.77,0,1.55,0,2.32,0a10.47,10.47,0,0,0,3-.5,10.75,10.75,0,0,0,5.68-4.28,11.75,11.75,0,0,0,1.74-4,4.15,4.15,0,0,1,2-3C143.31,145.38,143.28,145.26,143,145.13Zm-9.81-.46a1.88,1.88,0,0,1-.25.24,13,13,0,0,1-3.51,2.14,3.71,3.71,0,0,1-.93.22.88.88,0,0,1-.6-.1c-.15-.1-.14-.23,0-.32a1.6,1.6,0,0,1,.33-.07,2.38,2.38,0,0,0,1.67-1.32c.09-.2.1-.36-.13-.47s-.41-.13-.51.14a1.53,1.53,0,0,1-.49.68.73.73,0,0,1-1.17-.09c-.17-.19-.22-.44-.42-.71a1,1,0,0,0-.15,1.05c.1.25.22.48.3.73s0,.41-.33.42h-.11a1.71,1.71,0,0,0-1.48.31c-.88.47-1.7,1.05-2.54,1.59a1.39,1.39,0,0,1-.47.24c-.09-.22.07-.37.15-.51a22,22,0,0,1,1.33-2.11c.16-.23.3-.48.45-.71a1.43,1.43,0,0,0,.2-1.23,2,2,0,0,1,.34-1.77,4.52,4.52,0,0,1,.86-.94.27.27,0,0,1,.05.31,2.82,2.82,0,0,0-.12,1.12c0,.49.08.53.54.35a5.2,5.2,0,0,1,2.49-.41,15.76,15.76,0,0,1,1.66.34,22.82,22.82,0,0,0,2.71.55C133.31,144.36,133.34,144.48,133.19,144.67Z"/><path class="cls-6" d="M150.09,205a5.89,5.89,0,0,1-1.66-.69A18.08,18.08,0,0,1,141.8,199a12.81,12.81,0,0,1-2.34-5.46,13.13,13.13,0,0,1,0-4.84,16,16,0,0,1,1-3.18,23.85,23.85,0,0,1,2.79-4.85c1.06-1.42,2.14-2.83,3.15-4.28a22.79,22.79,0,0,0,3.26-6.31,15.7,15.7,0,0,0-1-12c-.56-1.13-1.15-2.25-1.6-3.43a9.46,9.46,0,0,1-.59-4.5c0-.13,0-.27.16-.34s.24.16.33.28a10,10,0,0,0,3.24,2.78c1.39.8,2.83,1.5,4.21,2.32a17.22,17.22,0,0,1,5.06,4.47,15.67,15.67,0,0,1,2.73,6.17,16.26,16.26,0,0,1-.6,8.58,18.69,18.69,0,0,1-1.94,4.09,15,15,0,0,1-1.55,2c-.09.09-.15.22-.31.23s-.07-.19,0-.29a26.6,26.6,0,0,0,.84-3.74,16.38,16.38,0,0,0,0-5.63,17,17,0,0,0-1.47-4.62c-.05-.1-.11-.2-.17-.3l-.09-.06c-.17,0-.11.17-.11.27,0,.36,0,.72,0,1.08a20.71,20.71,0,0,1-2,8.91,25.53,25.53,0,0,1-4.27,6.23c-1.26,1.4-2.65,2.68-3.91,4.09a13.58,13.58,0,0,0-2.7,4.22,9,9,0,0,0,.18,6.88,14.42,14.42,0,0,0,4.49,5.87,14.83,14.83,0,0,0,1.48,1.13c.08.05.17.09.16.21Z"/><path class="cls-6" d="M129.6,123a9.81,9.81,0,0,0-.67,1.68c0,.14-.1.28,0,.42a.3.3,0,0,0,.28-.18,11.76,11.76,0,0,1,4.42-3.8,18.09,18.09,0,0,1,7.14-2,20.23,20.23,0,0,1,6.67.55,3.71,3.71,0,0,1,1.17.44c-3.27.73-6.17,1.9-8.31,4.63a3,3,0,0,0,1-.12,17.71,17.71,0,0,1,5.28-.45,19.15,19.15,0,0,1,9.15,2.83,10.62,10.62,0,0,1,1.25,1,.31.31,0,0,1,.11.32,12.57,12.57,0,0,0-6.06,2.05l0,.14c.45.05.9.11,1.36.14a16.07,16.07,0,0,1,3.76.75,23.21,23.21,0,0,1,3.27,1.54,3.65,3.65,0,0,1,1.83,2.05,8.6,8.6,0,0,1,.4,1.13,23.54,23.54,0,0,0-5.92-1.68c-.07.2,0,.29.12.39a6.45,6.45,0,0,1,1.47,4.58,8,8,0,0,1-2.93,6,5.64,5.64,0,0,1-4.07,1.23.58.58,0,0,1-.16,0c0-.19.13-.22.23-.27a7.35,7.35,0,0,0,3.72-4.9,4.53,4.53,0,0,0-.48-3.55,3,3,0,0,0-1.75-1.34,5.33,5.33,0,0,0-3.28-.05,14.13,14.13,0,0,0-2.53,1,9.61,9.61,0,0,1-2,.73c-.58.15-1.14.38-1.69.57-.11-.08-.06-.15,0-.21a11.54,11.54,0,0,1,4.29-4.18,9.83,9.83,0,0,1,6.25-1.07c.37.06.73.18,1.1.27a1.78,1.78,0,0,0,.39.07c.19,0,.43,0,.47-.21s-.2-.23-.35-.29a10,10,0,0,0-5.32-.64c-1.82.3-3.63.66-5.45,1a8.43,8.43,0,0,0-1.09.31,6.55,6.55,0,0,1-2.32.4c-.49,0-1,0-1.48,0-.09,0-.19,0-.24-.09s0-.14.07-.2a14,14,0,0,1,5.41-4.7c.53-.27,1.08-.51,1.62-.76-.07-.17-.19-.14-.3-.14a13.61,13.61,0,0,0-6.17,1.41,13.12,13.12,0,0,0-4.58,3.54.68.68,0,0,1-.47.26c-.68.09-1.35.2-2,.3-.43.06-.47,0-.42-.4a12.73,12.73,0,0,1,2.28-6.14c.09-.12.17-.25.25-.38s0-.07,0-.11-.23,0-.34,0a11.06,11.06,0,0,0-5.92,7.13.86.86,0,0,1-.57.69,7.43,7.43,0,0,0-1.47.84c-.38.26-.47.22-.57-.21a11.85,11.85,0,0,1,1.24-8.64,15.49,15.49,0,0,1,2.39-3.28c.15-.15.26-.34.5-.36Z"/><path class="cls-6" d="M125.6,185.21a1.05,1.05,0,0,1-.13-.21,12.28,12.28,0,0,1,0-2.71c0-.3.1-.59.14-.89a12.06,12.06,0,0,1,1.77-4.56,15.23,15.23,0,0,1,2.81-3.24c1.41-1.26,3-2.27,4.48-3.46a14.3,14.3,0,0,0,4.21-5,6.57,6.57,0,0,0,.57-1.53c0-.13,0-.27.18-.34.44.51.6,2.18.45,3.64a17,17,0,0,1-.94,3.58,14,14,0,0,0,4-5.63,15.09,15.09,0,0,0,.92-6.83c.25.05.32.22.41.35a10.74,10.74,0,0,1,1.85,4.39,12.89,12.89,0,0,1-2.1,9.81,26.51,26.51,0,0,1-3.32,4,37,37,0,0,0-4.19,4.9,16.16,16.16,0,0,0-2.62,6.39,13.16,13.16,0,0,0-.28,2.64,17.81,17.81,0,0,0,1.52,6.92c.23.49.47,1,.7,1.48.05.11.15.22.1.37-.58-.11-2.25-1.69-3.43-3.23a17.46,17.46,0,0,1-2.36-4.24,15.46,15.46,0,0,1-1-4.69,16.7,16.7,0,0,1,.47-4.83,21.9,21.9,0,0,1,1.76-4.46,7.6,7.6,0,0,0-2.59,1.84,11.25,11.25,0,0,0-2.06,2.54A13,13,0,0,0,125.6,185.21Z"/><path class="cls-6" d="M166.39,174.64a1.37,1.37,0,0,1,0-.75,28.11,28.11,0,0,0,.2-3.56,19.83,19.83,0,0,0-2.55-9.11,24.74,24.74,0,0,0-4.59-5.93c-1.15-1.09-2.34-2.14-3.47-3.25a12.72,12.72,0,0,1-2.41-3,1.09,1.09,0,0,1-.08-.15c0-.12-.19-.22-.06-.35s.21,0,.32,0a37.87,37.87,0,0,1,4.17,1,17.66,17.66,0,0,1,7.19,4.25,15.08,15.08,0,0,1,3.86,6.56,14.9,14.9,0,0,1,.61,5.42,17.32,17.32,0,0,1-2.88,8.65C166.64,174.51,166.6,174.66,166.39,174.64Z"/><path class="cls-6" d="M125.18,168.94a.21.21,0,0,1-.15.2,2.85,2.85,0,0,0-1.22.89,2.61,2.61,0,0,1-2.64.9c-.41-.08-.44-.06-.6.3a2.73,2.73,0,0,0-.28,1.86c.09.34,0,.42-.34.31a6.28,6.28,0,0,1-2.18-1.27,10.4,10.4,0,0,1-1.51-1.72c-.34.39-.22.88-.37,1.31a1.42,1.42,0,0,1-.6-.53,6.85,6.85,0,0,1-1.43-4,3.4,3.4,0,0,1,.82-2.51.5.5,0,0,1,.68-.14c1.06.5,2.08,1.07,3.17,1.51a31.55,31.55,0,0,0,3.33,1.08,5,5,0,0,1,1.25.5c.6.33,1.17.69,1.75,1A.83.83,0,0,1,125.18,168.94Z"/><path class="cls-6" d="M159.35,142.86a13.42,13.42,0,0,1,2.87.73c.44.17.92.25,1.34.45s.54.74.87,1.08a10.61,10.61,0,0,1,2.37,4.37.22.22,0,0,1-.05.31,19,19,0,0,0-3.34-3.86A29.1,29.1,0,0,0,159.35,142.86Z"/></svg>