<svg xmlns="http://www.w3.org/2000/svg" xmlns:xlink="http://www.w3.org/1999/xlink" viewBox="0 0 138.49 28"><defs><style>.cls-1,.cls-4{isolation:isolate;}.cls-2{fill:#231f20;}.cls-3{fill:#0ab6c6;}.cls-4{opacity:0.6;}.cls-5{fill:url(#linear-gradient);}.cls-6{stroke:#fff;stroke-miterlimit:10;fill:url(#linear-gradient-2);}</style><linearGradient id="linear-gradient" x1="-173.41" y1="256.82" x2="-172.41" y2="255.82" gradientTransform="matrix(28, 0, 0, -28, 4855.43, 7191)" gradientUnits="userSpaceOnUse"><stop offset="0" stop-color="#12b3a7"/><stop offset="1" stop-color="#0a98b0"/></linearGradient><linearGradient id="linear-gradient-2" x1="7.48" y1="14" x2="20.52" y2="14" gradientTransform="matrix(1, 0, 0, 1, 0, 0)" xlink:href="#linear-gradient"/></defs><g id="Layer_2" data-name="Layer 2"><g id="Layer_1-2" data-name="Layer 1"><g class="cls-1"><path class="cls-2" d="M35.71,4.78V7.62h4.58v2.64H35.71v3.08h5.18v2.74h-8.6V2h8.6V4.78Z"/><path class="cls-2" d="M43.08,7.46a4.86,4.86,0,0,1,1.77-2,4.66,4.66,0,0,1,2.5-.7,4.33,4.33,0,0,1,2.07.48A3.56,3.56,0,0,1,50.79,6.5V4.92h3.42V16.08H50.79V14.5a3.77,3.77,0,0,1-1.39,1.26,4.33,4.33,0,0,1-2.07.48,4.46,4.46,0,0,1-2.48-.71,4.8,4.8,0,0,1-1.77-2,6.63,6.63,0,0,1-.65-3A6.61,6.61,0,0,1,43.08,7.46Zm7,1a2.4,2.4,0,0,0-3.46,0,2.74,2.74,0,0,0-.71,2,2.79,2.79,0,0,0,.71,2,2.38,2.38,0,0,0,3.46,0,2.79,2.79,0,0,0,.71-2A2.83,2.83,0,0,0,50.08,8.48Z"/><path class="cls-2" d="M58.63,15.74a4.41,4.41,0,0,1-1.8-1.37,3.58,3.58,0,0,1-.74-1.95h3.38a1.29,1.29,0,0,0,.54.94,1.9,1.9,0,0,0,1.18.36,1.69,1.69,0,0,0,1-.25A.76.76,0,0,0,62,12.11a11.39,11.39,0,0,0-1.62-.51,13.69,13.69,0,0,1-2-.59A3.28,3.28,0,0,1,57,10a2.64,2.64,0,0,1-.58-1.81A3,3,0,0,1,57,6.47a3.6,3.6,0,0,1,1.56-1.25A6.05,6.05,0,0,1,61,4.76a4.93,4.93,0,0,1,3.31,1,4.1,4.1,0,0,1,1.39,2.76H62.53A1.44,1.44,0,0,0,62,7.64a1.83,1.83,0,0,0-1.13-.34,1.58,1.58,0,0,0-.92.23.73.73,0,0,0-.32.63.77.77,0,0,0,.51.72,8.17,8.17,0,0,0,1.59.48,21,21,0,0,1,2,.63,3.57,3.57,0,0,1,1.37,1,2.89,2.89,0,0,1,.61,1.85,3,3,0,0,1-.55,1.75,3.62,3.62,0,0,1-1.58,1.21,6.14,6.14,0,0,1-2.39.44A6.28,6.28,0,0,1,58.63,15.74Z"/><path class="cls-2" d="M74.07,13.18v2.9H72.33a4.24,4.24,0,0,1-2.9-.91,3.72,3.72,0,0,1-1-3V7.76H67V4.92h1.36V2.2h3.42V4.92h2.24V7.76H71.81v4.48a.92.92,0,0,0,.24.72,1.14,1.14,0,0,0,.8.22Z"/><path class="cls-2" d="M78.1,15.54a5,5,0,0,1-2.06-2,6,6,0,0,1-.75-3,5.93,5.93,0,0,1,.76-3,5.16,5.16,0,0,1,2.08-2,6.61,6.61,0,0,1,5.92,0,5.22,5.22,0,0,1,2.08,2,6,6,0,0,1,.76,3,5.88,5.88,0,0,1-.77,3,5.2,5.2,0,0,1-2.1,2,6.26,6.26,0,0,1-3,.7A6.09,6.09,0,0,1,78.1,15.54Zm4.62-3a2.85,2.85,0,0,0,.69-2.06,3,3,0,0,0-.67-2.06,2.27,2.27,0,0,0-3.31,0,3,3,0,0,0-.66,2.07,2.93,2.93,0,0,0,.65,2.06,2.09,2.09,0,0,0,1.63.72A2.23,2.23,0,0,0,82.72,12.56Z"/><path class="cls-2" d="M93.63,5.33a3.88,3.88,0,0,1,2-.53V8.42h-.94A2.89,2.89,0,0,0,92.77,9a2.44,2.44,0,0,0-.64,1.93v5.18H88.71V4.92h3.42V6.78A4.61,4.61,0,0,1,93.63,5.33Z"/><path class="cls-2" d="M108.67,4.92l-7,16.46H98l2.56-5.68L96,4.92h3.82l2.58,7,2.56-7Z"/></g><g class="cls-1"><path class="cls-3" d="M120.61,15.72a4.35,4.35,0,0,1-2-1.48,4,4,0,0,1-.77-2.36h3.64a1.73,1.73,0,0,0,.54,1.19,1.68,1.68,0,0,0,1.2.41,1.86,1.86,0,0,0,1.2-.35,1.26,1.26,0,0,0,.09-1.83,3.12,3.12,0,0,0-.86-.56c-.34-.14-.83-.31-1.45-.5A15.47,15.47,0,0,1,120,9.4a4,4,0,0,1-1.48-1.24A3.4,3.4,0,0,1,117.93,6,3.68,3.68,0,0,1,119.35,3a5.82,5.82,0,0,1,3.7-1.11A5.92,5.92,0,0,1,126.79,3,4,4,0,0,1,128.31,6h-3.7a1.49,1.49,0,0,0-.5-1.07,1.77,1.77,0,0,0-1.18-.39,1.45,1.45,0,0,0-1,.33,1.17,1.17,0,0,0-.38,1,1.16,1.16,0,0,0,.64,1.06,9.62,9.62,0,0,0,2,.82,19.84,19.84,0,0,1,2.21.88,4.37,4.37,0,0,1,1.47,1.22,3.3,3.3,0,0,1,.62,2.06,4.09,4.09,0,0,1-.61,2.18,4.22,4.22,0,0,1-1.77,1.56,6,6,0,0,1-2.74.58A7.07,7.07,0,0,1,120.61,15.72Z"/><path class="cls-3" d="M134,13.44h4.48v2.64h-7.9V2H134Z"/></g><g class="cls-4"><path class="cls-2" d="M34.07,26.16a2.45,2.45,0,0,1-.93-.17,1.45,1.45,0,0,1-.61-.5,1.41,1.41,0,0,1-.24-.77H33a.74.74,0,0,0,.16.45.83.83,0,0,0,.38.27,1.42,1.42,0,0,0,.52.09,1.53,1.53,0,0,0,.54-.09.87.87,0,0,0,.37-.27.63.63,0,0,0,.14-.4.5.5,0,0,0-.11-.33.88.88,0,0,0-.32-.23,3.2,3.2,0,0,0-.47-.16l-.55-.14a2,2,0,0,1-.93-.47,1,1,0,0,1-.33-.79,1.2,1.2,0,0,1,.22-.72,1.39,1.39,0,0,1,.59-.47,2,2,0,0,1,.87-.17,2,2,0,0,1,.86.17,1.31,1.31,0,0,1,.58.48,1.26,1.26,0,0,1,.22.69h-.7a.71.71,0,0,0-.3-.53,1.1,1.1,0,0,0-.68-.19,1.22,1.22,0,0,0-.49.09.72.72,0,0,0-.33.25.6.6,0,0,0-.12.36.51.51,0,0,0,.12.35,1,1,0,0,0,.33.22,2.83,2.83,0,0,0,.41.14l.47.12a3,3,0,0,1,.5.17,1.73,1.73,0,0,1,.44.25,1.13,1.13,0,0,1,.31.38,1.09,1.09,0,0,1,.12.53,1.27,1.27,0,0,1-.21.72A1.4,1.4,0,0,1,35,26,2.27,2.27,0,0,1,34.07,26.16Z"/><path class="cls-2" d="M40.64,26.08V21.35h1.72a2.08,2.08,0,0,1,.91.19,1.38,1.38,0,0,1,.55.52,1.62,1.62,0,0,1,.18.77,1.44,1.44,0,0,1-.19.77,1.21,1.21,0,0,1-.56.51,2,2,0,0,1-.9.18H41.06v-.61H42.3a1.26,1.26,0,0,0,.55-.1.65.65,0,0,0,.32-.29,1,1,0,0,0,.11-.46.91.91,0,0,0-.11-.45.72.72,0,0,0-.32-.3,1.3,1.3,0,0,0-.56-.11h-.92v4.11Zm2.7,0L42.2,24H43l1.16,2.13Z"/><path class="cls-2" d="M49.56,21.35v4.73h-.72V21.35Z"/><path class="cls-2" d="M60.25,26.08V21.35H61v4.11h2.15v.62Z"/><path class="cls-2" d="M67.53,26.08l1.69-4.73h.88l1.71,4.73H71l-.92-2.64-.24-.75c-.08-.28-.18-.63-.3-1h.16l-.29,1c-.09.29-.16.54-.23.74l-.9,2.64Zm.92-1.24v-.6h2.44v.6Z"/><path class="cls-2" d="M76.45,26.08V21.35h.82l1.79,2.83c0,.08.12.19.19.32s.15.26.23.42.16.32.24.5l-.09,0,0-.51c0-.17,0-.34,0-.49s0-.28,0-.38V21.35h.73v4.73h-.83l-1.6-2.52-.23-.4c-.09-.14-.18-.29-.28-.48L77,22l.11,0c0,.24,0,.45,0,.65s0,.38,0,.54,0,.27,0,.36v2.53Z"/><path class="cls-2" d="M85.3,26.08V21.35H86v4.73Zm.51-1.25v-.76c.11-.15.21-.3.32-.43s.21-.27.32-.4.23-.28.35-.41l1.33-1.48h.92l-2,2.22H87Zm2.4,1.25L86.6,23.76l.45-.55,2,2.87Z"/><path class="cls-2" d="M93.35,26.08,95,21.35h.88l1.71,4.73h-.77l-.92-2.64c-.08-.21-.15-.46-.24-.75s-.19-.63-.3-1h.16c-.11.4-.21.75-.3,1s-.16.54-.23.74l-.9,2.64Zm.93-1.24v-.6h2.43v.6Z"/></g><rect class="cls-5" width="28" height="28" rx="8"/><path class="cls-6" d="M20.52,19.13a1.75,1.75,0,0,1,0,.32,2.56,2.56,0,0,1-.08.38l0,.14a1.77,1.77,0,0,0-.06.17c-.13.48-.3.95-.45,1.42a2.18,2.18,0,0,1-.49.81c-.45.43-.95.76-1.41,1.16a4.44,4.44,0,0,1-1.57.85c-1,.32-2,.65-3,1.06a3.19,3.19,0,0,1-2.62-.09A1.06,1.06,0,0,1,10.3,25a6.76,6.76,0,0,1-1-1.53,7.59,7.59,0,0,1-.44-1.4,12.24,12.24,0,0,1-.51-2c-.14-1.17-.17-2.37-.31-3.56a16,16,0,0,0-.5-3,2.17,2.17,0,0,1-.07-.77c0-.1,0-.21.14-.24.4-.06.51-.36.58-.71l.26-1.29a7,7,0,0,0,.31-1.74A2.49,2.49,0,0,1,9.37,7a1.74,1.74,0,0,0,.46-1.35,1.77,1.77,0,0,1,0-.46.84.84,0,0,1,.67-.88l.3-.08A.33.33,0,0,0,11,3.68a1.19,1.19,0,0,0-.48-.41A2.79,2.79,0,0,0,9.22,3a1.51,1.51,0,0,1-.47-.05c-.06,0-.14,0-.15-.11s.06-.12.13-.16a3,3,0,0,1,.91-.29,1.43,1.43,0,0,1,1.3.43,17.49,17.49,0,0,0,1.78,1.55,5.18,5.18,0,0,1,1.47,1.75A15.78,15.78,0,0,0,15.6,8.3a3.16,3.16,0,0,1,.54.87A3.06,3.06,0,0,0,17,10.46a2.14,2.14,0,0,1,.65,1.12,9.66,9.66,0,0,0,1.5,3.24,6.51,6.51,0,0,1,1.24,3.34c0,.19,0,.64.08.87C20.5,19.08,20.5,19.11,20.52,19.13Z"/></g></g></svg>