<?xml version="1.0" encoding="utf-8"?>
<!-- Generator: Adobe Illustrator 26.0.1, SVG Export Plug-In . SVG Version: 6.00 Build 0)  -->
<svg version="1.1" id="Layer_1" xmlns="http://www.w3.org/2000/svg" xmlns:xlink="http://www.w3.org/1999/xlink" x="0px" y="0px"
	 viewBox="0 0 180 40" style="enable-background:new 0 0 180 40;" xml:space="preserve">
<style type="text/css">
	.st0{enable-background:new    ;}
	.st1{fill:#231F20;}
	.st2{fill:#0AB6C6;}
	.st3{opacity:0.6;enable-background:new    ;}
	.st4{fill:url(#SVGID_1_);}
	.st5{fill:url(#SVGID_00000072988243068855770020000008603075645173834664_);stroke:#FFFFFF;stroke-miterlimit:10;}
	.st6{display:none;}
	.st7{display:inline;fill:#0AB6C6;}
	.st8{display:inline;}
	.st9{fill:none;stroke:#FFFFFF;stroke-width:0.1082;stroke-linecap:round;stroke-linejoin:round;stroke-miterlimit:10;}
</style>
<g>
	<g>
		<g>
			<g class="st0">
				<path class="st1" d="M56.5,10.8v2.8H61v2.6h-4.6v3.1h5.2v2.7H53V8h8.6v2.7H56.5z"/>
				<path class="st1" d="M63.8,13.5c0.4-0.9,1-1.5,1.8-2c0.7-0.5,1.6-0.7,2.5-0.7c0.8,0,1.5,0.2,2.1,0.5s1.1,0.7,1.4,1.3v-1.6H75
					v11.2h-3.4v-1.6c-0.3,0.5-0.8,0.9-1.4,1.3c-0.6,0.3-1.3,0.5-2.1,0.5c-0.9,0-1.7-0.2-2.5-0.7c-0.7-0.5-1.3-1.1-1.8-2
					c-0.4-0.9-0.6-1.9-0.6-3S63.4,14.3,63.8,13.5z M70.8,14.5c-0.5-0.5-1-0.7-1.7-0.7s-1.3,0.2-1.7,0.7c-0.5,0.5-0.7,1.2-0.7,2
					s0.2,1.5,0.7,2c0.5,0.5,1,0.8,1.7,0.8s1.3-0.2,1.7-0.7c0.5-0.5,0.7-1.2,0.7-2S71.3,15,70.8,14.5z"/>
				<path class="st1" d="M79.4,21.7c-0.8-0.3-1.4-0.8-1.8-1.4s-0.7-1.2-0.7-2h3.4c0,0.4,0.2,0.7,0.5,0.9c0.3,0.2,0.7,0.4,1.2,0.4
					c0.4,0,0.8-0.1,1-0.2c0.2-0.2,0.4-0.4,0.4-0.6c0-0.3-0.2-0.6-0.5-0.7c-0.3-0.2-0.9-0.3-1.6-0.5c-0.8-0.2-1.5-0.4-2-0.6
					c-0.5-0.2-1-0.5-1.4-1s-0.6-1-0.6-1.8c0-0.6,0.2-1.2,0.5-1.8c0.4-0.5,0.9-0.9,1.6-1.2c0.7-0.3,1.5-0.5,2.5-0.5
					c1.4,0,2.5,0.3,3.3,1c0.8,0.7,1.3,1.6,1.4,2.8h-3.2c-0.1-0.4-0.2-0.7-0.5-0.9c-0.3-0.2-0.7-0.3-1.1-0.3c-0.4,0-0.7,0.1-0.9,0.2
					c-0.2,0.2-0.3,0.4-0.3,0.6c0,0.3,0.2,0.6,0.5,0.7s0.9,0.3,1.6,0.5c0.8,0.2,1.5,0.4,2,0.6s1,0.5,1.4,1c0.4,0.5,0.6,1.1,0.6,1.8
					c0,0.7-0.2,1.2-0.5,1.8c-0.4,0.5-0.9,0.9-1.6,1.2c-0.7,0.3-1.5,0.4-2.4,0.4C81,22.2,80.1,22.1,79.4,21.7z"/>
				<path class="st1" d="M94.8,19.2v2.9h-1.7c-1.2,0-2.2-0.3-2.9-0.9c-0.7-0.6-1-1.6-1-3v-4.4h-1.4v-2.8h1.4V8.2h3.4v2.7h2.2v2.8
					h-2.2v4.5c0,0.3,0.1,0.6,0.2,0.7c0.2,0.1,0.4,0.2,0.8,0.2H94.8z"/>
				<path class="st1" d="M98.9,21.5c-0.9-0.5-1.6-1.1-2.1-2c-0.5-0.9-0.8-1.9-0.8-3c0-1.1,0.3-2.2,0.8-3c0.5-0.9,1.2-1.5,2.1-2
					s1.9-0.7,3-0.7s2.1,0.2,3,0.7s1.6,1.1,2.1,2c0.5,0.9,0.8,1.9,0.8,3s-0.3,2.2-0.8,3c-0.5,0.9-1.2,1.5-2.1,2
					c-0.9,0.5-1.9,0.7-3,0.7S99.7,22,98.9,21.5z M103.5,18.6c0.5-0.5,0.7-1.2,0.7-2.1c0-0.9-0.2-1.6-0.7-2.1c-0.4-0.5-1-0.7-1.6-0.7
					c-0.7,0-1.2,0.2-1.7,0.7c-0.4,0.5-0.7,1.2-0.7,2.1c0,0.9,0.2,1.6,0.6,2.1c0.4,0.5,1,0.7,1.6,0.7S103,19,103.5,18.6z"/>
				<path class="st1" d="M114.4,11.3c0.6-0.4,1.3-0.5,2-0.5v3.6h-0.9c-0.9,0-1.5,0.2-1.9,0.5c-0.4,0.4-0.6,1-0.6,1.9v5.2h-3.4V10.9
					h3.4v1.9C113.3,12.2,113.8,11.7,114.4,11.3z"/>
				<path class="st1" d="M129.4,10.9l-7,16.5h-3.7l2.6-5.7l-4.5-10.8h3.8l2.6,7l2.6-7H129.4z"/>
			</g>
			<g class="st0">
				<path class="st2" d="M141.4,21.7c-0.8-0.3-1.5-0.8-2-1.5c-0.5-0.7-0.7-1.4-0.8-2.4h3.6c0.1,0.5,0.2,0.9,0.5,1.2s0.7,0.4,1.2,0.4
					c0.5,0,0.9-0.1,1.2-0.4s0.4-0.6,0.4-1c0-0.3-0.1-0.6-0.3-0.9c-0.2-0.2-0.5-0.4-0.9-0.6s-0.8-0.3-1.5-0.5
					c-0.9-0.3-1.6-0.6-2.2-0.8c-0.6-0.3-1.1-0.7-1.5-1.2c-0.4-0.5-0.6-1.3-0.6-2.1c0-1.3,0.5-2.3,1.4-3.1s2.2-1.1,3.7-1.1
					c1.5,0,2.8,0.4,3.7,1.1c0.9,0.7,1.5,1.8,1.5,3.1h-3.7c0-0.5-0.2-0.8-0.5-1.1c-0.3-0.3-0.7-0.4-1.2-0.4c-0.4,0-0.7,0.1-1,0.3
					s-0.4,0.5-0.4,1c0,0.5,0.2,0.8,0.6,1.1c0.4,0.3,1.1,0.5,2,0.8c0.9,0.3,1.6,0.6,2.2,0.9s1.1,0.7,1.5,1.2c0.4,0.5,0.6,1.2,0.6,2.1
					c0,0.8-0.2,1.5-0.6,2.2s-1,1.2-1.8,1.6c-0.8,0.4-1.7,0.6-2.7,0.6C143.1,22.2,142.2,22.1,141.4,21.7z"/>
				<path class="st2" d="M154.8,19.4h4.5v2.6h-7.9V8h3.4V19.4z"/>
			</g>
		</g>
		<g class="st3">
			<path class="st1" d="M54.8,32.2c-0.4,0-0.7-0.1-0.9-0.2c-0.3-0.1-0.5-0.3-0.6-0.5S53.1,31,53,30.7h0.7c0,0.2,0.1,0.3,0.2,0.4
				c0.1,0.1,0.2,0.2,0.4,0.3c0.2,0.1,0.3,0.1,0.5,0.1c0.2,0,0.4,0,0.5-0.1s0.3-0.2,0.4-0.3s0.1-0.2,0.1-0.4c0-0.1,0-0.2-0.1-0.3
				s-0.2-0.2-0.3-0.2c-0.1-0.1-0.3-0.1-0.5-0.2l-0.5-0.1c-0.4-0.1-0.7-0.3-0.9-0.5s-0.3-0.5-0.3-0.8c0-0.3,0.1-0.5,0.2-0.7
				s0.3-0.4,0.6-0.5s0.5-0.2,0.9-0.2c0.3,0,0.6,0.1,0.9,0.2s0.4,0.3,0.6,0.5s0.2,0.4,0.2,0.7h-0.7c0-0.2-0.1-0.4-0.3-0.5
				s-0.4-0.2-0.7-0.2c-0.2,0-0.4,0-0.5,0.1c-0.1,0.1-0.3,0.1-0.3,0.2c-0.1,0.1-0.1,0.2-0.1,0.4c0,0.1,0,0.3,0.1,0.3s0.2,0.2,0.3,0.2
				c0.1,0.1,0.3,0.1,0.4,0.1l0.5,0.1c0.2,0,0.3,0.1,0.5,0.2c0.2,0.1,0.3,0.2,0.4,0.3s0.2,0.2,0.3,0.4s0.1,0.3,0.1,0.5
				c0,0.3-0.1,0.5-0.2,0.7c-0.1,0.2-0.3,0.4-0.6,0.5S55.2,32.2,54.8,32.2z"/>
			<path class="st1" d="M61.4,32.1v-4.7h1.7c0.4,0,0.7,0.1,0.9,0.2c0.2,0.1,0.4,0.3,0.6,0.5c0.1,0.2,0.2,0.5,0.2,0.8
				c0,0.3-0.1,0.6-0.2,0.8c-0.1,0.2-0.3,0.4-0.6,0.5c-0.2,0.1-0.5,0.2-0.9,0.2h-1.3v-0.6h1.2c0.2,0,0.4,0,0.6-0.1
				c0.1-0.1,0.3-0.2,0.3-0.3C64,29.2,64,29,64,28.8c0-0.2,0-0.3-0.1-0.5c-0.1-0.1-0.2-0.2-0.3-0.3C63.5,28,63.3,28,63,28h-0.9v4.1
				H61.4z M64.1,32.1L63,29.9h0.8l1.2,2.1H64.1z"/>
			<path class="st1" d="M70.3,27.4v4.7h-0.7v-4.7H70.3z"/>
			<path class="st1" d="M81,32.1v-4.7h0.7v4.1h2.2v0.6H81z"/>
			<path class="st1" d="M88.3,32.1l1.7-4.7h0.9l1.7,4.7h-0.8l-0.9-2.6c-0.1-0.2-0.2-0.5-0.2-0.8c-0.1-0.3-0.2-0.6-0.3-1h0.2
				c-0.1,0.4-0.2,0.8-0.3,1C90.1,29,90,29.2,90,29.4l-0.9,2.6H88.3z M89.2,30.8v-0.6h2.4v0.6H89.2z"/>
			<path class="st1" d="M97.2,32.1v-4.7H98l1.8,2.8c0.1,0.1,0.1,0.2,0.2,0.3c0.1,0.1,0.1,0.3,0.2,0.4s0.2,0.3,0.2,0.5l-0.1,0
				c0-0.2,0-0.3,0-0.5c0-0.2,0-0.3,0-0.5c0-0.2,0-0.3,0-0.4v-2.7h0.7v4.7h-0.8l-1.6-2.5c-0.1-0.1-0.2-0.3-0.2-0.4s-0.2-0.3-0.3-0.5
				c-0.1-0.2-0.2-0.4-0.4-0.7l0.1,0c0,0.2,0,0.5,0,0.7c0,0.2,0,0.4,0,0.5s0,0.3,0,0.4v2.5H97.2z"/>
			<path class="st1" d="M106.1,32.1v-4.7h0.7v1.5l0,1.1l0,0.4v1.8H106.1z M106.6,30.8v-0.8c0.1-0.2,0.2-0.3,0.3-0.4
				c0.1-0.1,0.2-0.3,0.3-0.4c0.1-0.1,0.2-0.3,0.4-0.4l1.3-1.5h0.9l-2,2.2l0,0L106.6,30.8z M109,32.1l-1.6-2.3l0.5-0.6l2,2.9H109z"/>
			<path class="st1" d="M114.1,32.1l1.7-4.7h0.9l1.7,4.7h-0.8l-0.9-2.6c-0.1-0.2-0.2-0.5-0.2-0.8c-0.1-0.3-0.2-0.6-0.3-1h0.2
				c-0.1,0.4-0.2,0.8-0.3,1c-0.1,0.3-0.2,0.5-0.2,0.7l-0.9,2.6H114.1z M115,30.8v-0.6h2.4v0.6H115z"/>
		</g>
	</g>
	<g>
		
			<linearGradient id="SVGID_1_" gradientUnits="userSpaceOnUse" x1="-152.6515" y1="262.8214" x2="-151.6515" y2="261.8214" gradientTransform="matrix(28 0 0 -28 4295 7365)">
			<stop  offset="1.385225e-07" style="stop-color:#12B3A7"/>
			<stop  offset="1" style="stop-color:#0A98B0"/>
		</linearGradient>
		<path class="st4" d="M28.8,6h12c4.4,0,8,3.6,8,8v12c0,4.4-3.6,8-8,8h-12c-4.4,0-8-3.6-8-8V14C20.8,9.6,24.3,6,28.8,6z"/>
		
			<linearGradient id="SVGID_00000039832981200008693020000009897200922545602454_" gradientUnits="userSpaceOnUse" x1="28.2395" y1="20" x2="41.2742" y2="20">
			<stop  offset="1.385225e-07" style="stop-color:#12B3A7"/>
			<stop  offset="1" style="stop-color:#0A98B0"/>
		</linearGradient>
		<path style="fill:url(#SVGID_00000039832981200008693020000009897200922545602454_);stroke:#FFFFFF;stroke-miterlimit:10;" d="
			M41.3,25.1c0,0.1,0,0.2,0,0.3c-0.1,0.3-0.1,0.4-0.1,0.4l0,0.1c0,0.1,0,0.1-0.1,0.2c-0.1,0.5-0.3,0.9-0.5,1.4
			c-0.1,0.3-0.3,0.6-0.5,0.8c-0.4,0.4-0.9,0.8-1.4,1.2c-0.5,0.4-1,0.7-1.6,0.8c-1,0.3-2,0.6-3,1.1c-0.9,0.4-1.8,0.3-2.6-0.1
			c-0.2-0.1-0.4-0.2-0.5-0.3c-0.4-0.5-0.7-1-1-1.5c-0.2-0.4-0.3-0.9-0.4-1.4c-0.2-0.7-0.4-1.3-0.5-2c-0.1-1.2-0.2-2.4-0.3-3.6
			c-0.1-1-0.2-2-0.5-3c-0.1-0.2-0.1-0.5-0.1-0.8c0-0.1,0-0.2,0.1-0.2c0.4-0.1,0.5-0.4,0.6-0.7c0.1-0.4,0.2-0.9,0.3-1.3
			c0.1-0.6,0.3-1.2,0.3-1.7c0-0.7,0.1-1.3,0.6-1.8c0.3-0.4,0.5-0.8,0.5-1.3c0-0.2,0-0.3,0-0.5c0-0.5,0.2-0.7,0.7-0.9
			c0.1,0,0.2-0.1,0.3-0.1c0.3-0.1,0.3-0.3,0.2-0.5c-0.1-0.2-0.3-0.3-0.5-0.4C30.8,9.1,30.4,9,30,9c-0.2,0-0.3,0-0.5-0.1
			c-0.1,0-0.1,0-0.2-0.1c0-0.1,0.1-0.1,0.1-0.2c0.3-0.2,0.6-0.2,0.9-0.3c0.5-0.1,0.9,0.1,1.3,0.4c0.6,0.5,1.1,1.1,1.8,1.5
			c0.6,0.5,1.1,1.1,1.5,1.8c0.4,0.8,0.8,1.5,1.4,2.2c0.2,0.3,0.4,0.5,0.5,0.9c0.2,0.5,0.5,0.9,0.9,1.3c0.3,0.3,0.6,0.7,0.7,1.1
			c0.3,1.2,0.8,2.2,1.5,3.2c0.7,1,1.2,2.1,1.2,3.3c0,0.2,0.1,0.6,0.1,0.9C41.3,25.1,41.3,25.1,41.3,25.1z"/>
	</g>
</g>
<g class="st6">
	<path class="st7" d="M20,22.4c0,0,0.2-0.4,0-0.3c0.1-0.9,0.2-1.3,0-1.6c0.3-0.3,0.2-0.5,0.2-0.5s-0.3,0.2-0.5,0.1
		c-0.1,0-0.3-0.4-0.5-0.4c0,0.1,0,0.3,0,0.3l-0.2,0.1c0,0-0.2-0.3-0.4-0.3c0,0.2,0,0.3,0,0.3l-0.2,0.2c0,0-0.3-0.4-0.6-0.2
		c0.2,0.1,0.3,0.3,0.3,0.3s-0.6,0.1-0.9,0.2c-0.2,0.1,0-0.1,0-0.1s0-0.1-0.2-0.1c-0.2,0-0.2,0.3,0,0.4c0.2,0.2,0.3,0.2,0.4,0.2
		c0.1-0.1,0.1,0,0.2,0.1c0.1,0.1,0.3,0.2,0.3,0.2l0-0.2l0.3,0.3h-1c0,0-0.2,0-0.4-0.1c0,0.2,0.2,0.3,0.2,0.3l-0.2,0c0,0,0,0.1,0,0.2
		c0,0.2,0,0.4,0,0.4l-0.1,0.1c0,0,0.2,0,0.3-0.1c0.1-0.1,0.2-0.2,0.2-0.2s0,0.4-0.1,0.5c0.2-0.1,0.2-0.5,0.2-0.5h0.1
		c0,0-0.1,0.3,0.1,0.4c0-0.2,0.2-0.4,0.2-0.4l0,0.3c0,0,0.2-0.1,0.2-0.2c0,0,0.1,0.1,0.1,0.2c0,0.1,0,0.3,0,0.3s-1.3,0.4-1.3,1.6
		c-0.3-0.6-0.8-0.6-0.8-0.6s0.1,0.1,0,0.2c0.1,0.1,0.1,0.2,0,0.3c0.1,0.1,0.1,0.2,0,0.3c0.1,0.1,0.3,0.3,0.2,0.5
		c-0.1,0.2-0.1,0.3,0,0.3c0.1,0,0.3,0.1,0.3-0.2c0.3,0.5,0.7,0.6,0.9,0.5c0.2-0.1,0-0.4,0-0.4s0.5,0.3,0.6,0.3
		c0.1,0,0.2,0.8,0.1,0.9c-0.1,0.1-0.2,0.2-0.2,0.2s-0.6-0.1-0.7,0.5c0.1,0,0.2,0,0.2,0l0.2-0.2L17.6,27h0.3l0.2-0.3L18,27h1
		c0,0,0.1-0.1,0.1-0.2c0-0.1-0.1-0.5,0-0.5c0.1,0,0.5-0.4,0.4-0.5c-0.1-0.1-0.6,0.1-0.6,0.1s0.1-0.3,0.2-0.4c0.6,0,1.8-0.6,2.2-0.9
		c0,0.4,0,0.6,0.2,0.7c0.2,0.1,0.3,0.4,0.3,0.6c0,0.2-0.1,0.6-0.1,0.6s-0.5-0.2-0.7,0c-0.2,0.2-0.2,0.4-0.2,0.4h0.1l0.4-0.3L21.1,27
		h0.3l0.2-0.2L21.5,27h0.8c0,0,0.3-0.7,0.3-1c0.3-0.1,0.4-0.4,0.4-0.4s-0.4,0-0.5,0.1c0.1-0.4,0.3-0.7,0.2-1.1
		c0.4,0.4,0.7,0.6,0.8,0.9c0,0.3,0,0.9,0,1c0,0-0.4-0.1-0.5-0.1c-0.1,0-0.4,0.1-0.5,0.6c0.1,0,0.2,0,0.2,0l0.1-0.1l0,0.1H23l0.1-0.2
		l0,0.2l0.5,0l0-0.2c0,0,0.1,0,0.3,0.1c0.2,0,0.4,0,0.4-0.2c0-0.2-0.1-0.5-0.1-0.5s0.2-0.1,0.1-0.2c-0.1-0.1-0.2-0.2-0.2-0.2
		s0.5,0,0.6-0.3c-0.2,0-0.3,0-0.3,0s-0.3-0.1-0.3-0.4c-0.1-0.2-0.1-0.5,0-0.7c0.1-0.2,0.4-0.9,0.5-1.3c0-0.4-0.3-0.7-0.4-0.8
		c0.4-0.6,0.3-1.3-0.3-1.4c-0.7-0.2-1.3-0.1-1.6,0c-0.3,0.1-0.6-0.2-0.8-0.4c-0.1,0.1-0.1,0.3-0.1,0.3s-0.3-0.1-0.1-0.5
		c-0.2-0.1-0.5,0.1-0.5,0.1s0-0.4,0.3-0.5c0.3-0.1,0.5,0.2,0.5,0.2V20l0.4,0.4L22,20c0,0,0.3,0.2,0,0.5c0.4,0.1,0.4-0.3,0.4-0.3
		s0.3,0.5,0.7,0.4c-0.1-0.2-0.1-0.2-0.1-0.2s0.5,0.4,0.9,0.4c0.3,0,0.5-0.4,0.2-0.5c-0.2-0.1-0.3,0.3-0.3,0.3s-0.7-0.4-1.4-0.7
		c-0.8-0.3-2.4-0.3-2.1,1c-0.2,0.3-0.1,0.7-0.1,0.7s0.3-0.4,0.4-0.4c0.1,0,0.4,0.4,1.2,0.4c0.7,0,1.3-0.3,1.6-0.2
		c0.4,0.1,0.6,0.4,0.5,0.9c-0.4,0-0.6-0.3-1.3-0.2C22,22,20.8,22.4,20,22.4z"/>
	<g class="st8">
		<g>
			<path class="st2" d="M16,19.1c0,0-0.3,3.1-0.1,4.1c0.2,0,0-0.2,0.2-0.3c0.1-0.1,0.4,0.2,0.1,0.4c-0.3,0.2-1,0.1-1.3-0.1
				c-0.3-0.2-0.1-0.5,0.2-0.4c0.2,0,0,0.2,0.2,0.3C15.3,20.3,15.9,19.2,16,19.1z"/>
			<path class="st2" d="M16.1,25.3c-0.1-0.2-0.4-0.1-0.3,0.2c-0.1,0-0.2-0.2-0.2-0.2c0-0.1,0-0.2,0-0.3c0-0.1,0.1-0.1,0.2-0.1
				c0.2,0,0.4-0.2,0.2-0.3c-0.2-0.2-0.3,0.2-0.4,0.1c0,0-0.1-0.1-0.2-0.1c-0.1,0-0.2,0.1-0.2,0.1c0,0-0.2-0.3-0.4-0.1
				C14.8,24.8,15,25,15.2,25c0.2,0,0.3,0,0.2,0.1c0,0.1-0.1,0.2,0,0.3c0,0.1,0,0.2-0.2,0.2c0.1-0.3-0.2-0.4-0.3-0.2
				c-0.1,0.2,0.1,0.4,0.2,0.4c0.2,0,0.3,0,0.3,0v0.1L15.2,26l0.2,0.1l0.1,0.2l0.1-0.2l0.2-0.1l-0.2-0.2v-0.1c0,0,0.2,0,0.3,0
				C16.1,25.7,16.2,25.4,16.1,25.3z"/>
			<path class="st2" d="M15,23.6c-0.1,0,0,0.2,0.4,0.2c0.3,0,0.5,0,0.5-0.1c0.1-0.2-0.2,0-0.4,0C15.2,23.7,15.1,23.6,15,23.6z"/>
			<path class="st2" d="M15,23.9c-0.1,0,0,0.2,0.4,0.2c0.3,0,0.5,0,0.5-0.1c0.1-0.2-0.2,0-0.4,0C15.2,23.9,15.1,23.8,15,23.9z"/>
			<path class="st2" d="M15,24.1c-0.1,0,0,0.2,0.4,0.2c0.3,0,0.5,0,0.5-0.1c0.1-0.2-0.2,0-0.4,0C15.2,24.2,15.1,24.1,15,24.1z"/>
			<path class="st2" d="M15,24.4c-0.1,0,0,0.2,0.4,0.2c0.3,0,0.5,0,0.5-0.1c0.1-0.2-0.2,0-0.4,0C15.2,24.4,15.1,24.3,15,24.4z"/>
		</g>
	</g>
	<g class="st8">
		<path class="st9" d="M18,20.6c-0.1,0,0,0.5,0.1,0.4C18.3,21,18.2,20.6,18,20.6z"/>
		<path class="st9" d="M18.2,20.5c0,0,0.5,0.5,0.6,0.4c0.2-0.1-0.1-0.3-0.1-0.3s0.5,0.3,0.6,0.2c-0.2-0.2-0.2-0.3-0.2-0.3h0.6"/>
		<path class="st9" d="M18.4,21.1c0,0,0.4,0.4,0.5,0.4c0.1,0-0.2-0.4-0.2-0.4s0.3,0.2,0.4,0.2c0.1,0,0-0.3,0-0.3s0.2,0.2,0.3,0.2
			c0-0.2,0-0.2,0-0.2l0.2,0.2v-0.5c0,0,0.3,0.4,0.6,0.5"/>
		<path class="st9" d="M18.6,21.8l0.3,0.3l0-0.5c0,0,0.2,0.2,0.3,0.2c0-0.3,0-0.5,0-0.5s0.2,0.4,0.3,0.5c0-0.2,0.1-0.5,0.1-0.5
			s0.2,0.7,0.4,0.7c0.2,0,0.3-0.2,0.3-0.2"/>
		<path class="st9" d="M18.4,22.6v-0.3c0,0,0.2,0.4,0.3,0.4c0-0.3,0-0.5,0-0.5"/>
		<path class="st9" d="M18.9,22.3c0,0,0.2,0.5,0.5,0.6c-0.2-0.3-0.2-0.6-0.2-0.6s0.3,0.5,0.5,0.5c-0.1-0.2-0.1-0.6-0.1-0.6
			s0.3,0.5,0.4,0.5c0.1,0,0.1-0.2,0.1-0.2"/>
		<path class="st9" d="M16.7,21.6c0,0,0.4,0.2,0.7,0.1c0.3-0.1,0.3,0,0.3,0v0.2c0,0,0.4-0.1,0.7,0.1c0.1-0.2-0.1-0.4-0.4-0.5"/>
		<path class="st9" d="M17.9,24.2c0,0,0,0.8,0.2,1.2"/>
		<path class="st9" d="M19.9,24.2c-0.1,0.5-0.7,1.2-0.8,1.5"/>
		<path class="st9" d="M22.5,24.4c0,0-0.7-0.4-1.4,0.4"/>
		<path class="st9" d="M15.2,23.2c0,0,0.2,0.2,0.7,0.1"/>
		<path class="st9" d="M16.8,23.9c0,0,0.1,0.6,1,1.4"/>
	</g>
</g>
</svg>
